<?xml version="1.0" encoding="UTF-8"?><svg id="Layer_1" xmlns="http://www.w3.org/2000/svg" viewBox="0 0 600 600"><path d="M491.88,177.46c-23.34,4.85-39.51,8.78-59.34,13.6-3.44.84-15.8,3.08-12.35,9.75,3.16,6.12-6.13,4.49-9.85,11.16-5.59,10.01-5.65,22.72-3.47,33.69.5,2.54,5.44,16.7,4.76,17.56-1.81.41-1.24-.49-1.83-1.33-6.38-9.03-9.09-26.37-8-37.21.63-6.23,2.7-11.15,5.44-16.16-1.28-.27-2.3-.62-3.06.11-8.02,7.76-9.69,23.69-7.96,34.2.95,5.75,3.78,11.1,4.77,16.83-11.35-15.13-14.45-42.15,3.55-55.26-2.87-3.53-9.84-3.72-13.74-2.9-17.31,3.64-30.28,7.13-47.8,11.32-17.52,4.19-28.15,6.5-44.64,10.69-14.1,3.59-11.41,7.52-18.52,25.2-.44,1.09-.05,1.72-1.09,2.44-3.35-3.91-8.7-4.85-12.65-7.18-6.17-3.66-6.49-9.19-15.03-7.01-10.22,2.62-21.32,9.27-30.3,14.34-9.1,5.14-21.83,2.31-31.5.07l-4.42-3.74c9.32-.99,18.73,3.35,27.83.54,10.77-3.32,18.25-14.64,26.95-19.12,5.18-2.67,22.83-4.52,26-7.31.66-.58.92-.78.72-1.75-8.61-3.15-13.66-12.23-7.8-19.98,1.14-1.5,3.39-2.86,5.19-3.84,4.46-2.44,9.01-3.54,11.28-3.63,1.06-1.55-9.58-13.89-11.14-15.81-3.54-4.34-6.93-8.59-11.17-12.14-.74-.62-6.04-4.58-6.4-4.73-2.71-1.17-14.13-.47-17.55.91-26.47,10.68-37.6.76-45.69,18.88-5.67,3.16-23.43,14.01-28.36,6.29-6.78,2.91-2.22,11.73,1.3,17.6,0,0-2.22-9.46-1.48-11.66.73-2.2,1.96-.96,1.96-.96-.1,2.31.5,5.71,2.1,7.47,3.29,3.6,14.36,1.38,3.64,9.89,7.38,11.82,3.85,28.83,14.72,39.13-20.34,45.03,3.39,93.14,48.81,109.18,30.59,10.81,61.95,1.25,85.57-19.7,2.44-2.17,15.97-16.04,14.93-18.42-4.23-4.39-11.4-5.94-13.83-12.03,5.07,4.44,17.59,16.03,19.78,3.3-5.93-3.57-10.98-7.62-15.55-12.85-1.79-2.05-9.77-14.13-10.95-13.84-2.8,3.07-4.08,5.79-2.5,9.92-3.67-2.23-4.94,1.59-7.46,3.52-11.12,8.54-21.8,15.24-36.14,17.02-2.56.32-6.04-.52-8.34.16-1.38.41-3.67,3.8-5.78,4.85-2.07,1.03-4.4,1.1-6.5,2.01-3.09.63,3.41-6.18,2.57-7l-13.46,5.66c-.54-.42,6.6-8.64,5.67-10.62-1.27-1.28-11.18,7.76-14.17,6.37-1.35-1.31,5.52-8.68,6.36-10.27-1.08-1.5-.99-.69-1.86-.48-3.65.87-7.8,4.74-11.24,6.49-4.25-2.76,6.94-11.25,5.32-12.74-4.33-.38-6.9,4.05-10.97,4.96-2.84-.6,2.02-10.19,3.16-11.7-2.02-3.56-8.99,4.17-9.9,3.19-.39-3.23,4.79-7.58,7.39-8.55,10.33-3.86,28.23,7.93,35.49,14.93l-5.31-13.46c8.7,1.78,16.32,13.23,25.05,12.69,5.93-.37,25.18-7.78,29.16-11.98,2.46-2.6,1.33-4.59,2.31-7.61,1.54-4.71,6.36-8.98,11.18-10.08.68-9.12-.71-16.49,3.25-25.1,2.23-4.84,12.25-14.83,17.44-15.87,8.89-1.79,8.7,8.66,7.29,14.72,4.63-4.2,11.62-12.52,18.45-10.36,4.78,1.51,4.86,7.22,6.65,8.65,1.78,1.41,4.36-2,6.53.7,1.71,2.12,3.18,4.11,2.42,8.41-.12.68,3.94,1.75,5.49,4.43,4.7,8.13-3.06,27.39-9.11,34.23,17.75-1.72,31.03-3.01,51.17-4.96,21.38-2.07,44.44-3.31,64.18-6.22,3.87-.57,13.59-.66,15.49-7.9.88-3.34-.9-16.69-1.9-22.37-5.39-30.58-4.7-35.86-.14-44.28,3.08-5.94,5.64-4.27,7-8.49.88-2.75-4.69-18.34-8.02-18.47ZM194.05,223.53c4.12-6.25,38.12-13.03,41.81-9.91-.7,2.54-5.37,1.84-7.43,2.13-11.68,1.6-23.3,3.69-34.38,7.78ZM222.04,224.24c-7.15.83-15.94,4.24-15.94,4.24,8.67-6.72,21.22-8.01,31.89-8.49,0,0-4.63,2.92-15.94,4.24ZM239.41,206.53c.17,1-1.26,1.03-1.97,1.2-7.33,1.81-15.01.43-22.47.93-7.48.5-14.89,2.73-22.33,3.53,1.61-1.71,4.71-2.66,6.93-3.34,12.37-3.79,27.2-4.96,39.84-2.32ZM198.12,177.64c13.33-2.43,18.13,20.57,1.96,18.96-10.73-1.07-12.28-17.08-1.96-18.96ZM418.37,253.29c-1.78-5.55-4.57-14.51-2.13-19.84,2.28,10.33,4.07,20.91,8.86,30.46-4.09-1.05-5.6-7.1-6.73-10.63ZM476.83,264.99c-4.43,4.59-22.85,7.56-28.55,5.88-3.93-1.16-7.87-14.02-8.96-17.97-2.76-10.03-4.41-22.86-3.57-33.25.23-2.88,2.93-17.81,5.42-18.67,1.42-.49,9.22-1.43,11.19-1.57,5.72-.39,15.24-.85,19.93,2.47,13.38,9.45,15.68,51.55,4.54,63.11Z"/><path d="M351.05,469.45c-4.35,2.79-8.83-.82-6.9-6.88,2.97-9.32,24.3-26.52,31.7-34.91,15.53-17.61,35.04-48.13,20.44-70.2-2.89-4.37-5.39-7.47-9.15-12.6-4.51-6.16-11.24-15.1-15.72-21.36-4.14-5.77-11.65-3.27-13.69-3.32-2.6-.07-7.89,1.67-11.3.45l11.73-3.49c15.51-4.5,19.31,5.22,28.72,4.31,3.13-1.14,3.58-10.83,3.82-13.21.53-5.39,1.61-11.67-1.17-11.46,0,0-23.64,2.21-28.59,3.27-2,.43-19.89,6.29-20.9,7.46-1.1,1.27-.53,3.4-1.23,5.14-2.62,6.51-9.42,15.08-13.88,20.37-14.94,17.72-29.14,28.44-50.46,35.29-11.75,3.78-32.77,7.04-52.42,3.51-.34.48,3.58,5.52,1.64,9-.54.98-2.63,4.02-4.7,5.48-22.14,15.67-33.8,31.36-42.66,59.7-1.96,6.26-.2,12.84,3.87,16.06,1.23.97,13.06,12.58,10.95,15.84-.43.66-3.04-1.25-16.17-8.25-17.61-9.39-45.02,12.47-34.44,32.09,1.72,3.2,23.01,5.51,41.19,4.18,14.19-1.04,30.82-2.22,50.78-10.38,3.57-1.46,11.63-.8,17.18-4.11,1.73-1.1.63-2.7-.01-4.24-1.44-3.48-4.4-9.56-6.15-13.01-.8-1.58-3.24-.57-1.45-4.53,1.22-2.69,11.46-8.27,14.67-10.84,6.4-5.11,15.07-14.27,20.58-20.52,3.09-3.5,5.92-7.47,8.5-11.36,2.64.12-4.32,16.43-5.32,17.72,3.04,2.19,29-9.31,34.04-10.96,3.2-1.05,6.57-1.96,9.9-2.49l-14.85,8.95c3.52,8.54-3.08,19.27-7,26.96-2.52,4.93-10.89,13.59-3.45,18.09,7.88,4.77,50.22,9.79,61.32,9.99,18.86.35,27.64-.62,46.57-6.75,4.28-1.39,6.38-15.28-2.35-23.48-17.41-16.37-41.1-3.54-53.64,4.49Z"/><path d="M280.87,185.97c1.56,3.71,7.28,6.89,9.45,10.39,1.93,3.12,1.39,6.58,3.65,9.11,1.47.73,6.95.83,8.78.26,22.85-7.16,43.69-10.43,51.45-11.67,4.42-.7,41.67-9.29,41.67-9.29.41-.8-1.97-10.85-1.97-10.85-11.27,1.04-23.17,3.46-34.37,4.25-2.78.2-12.8,1.35-14.19-.68-2.91-4.24-8.92-36.82-10.27-45.06l1.78-3.15,10.44,45.89c1.64,1.68,14.14.56,17.19.16,28.45-3.81,44.1-9.49,68.64-16.3,11.28-3.13,15.77-1.99,14.54-14.42-1.04-10.49-3.68-23.47-5.79-33.9-1.69-8.38-1.12-16.75-11.48-16.87-14.86-.17-40.67-.72-47.71,2.28-35.49,15.15-72.72,31.05-105.5,44.36-4.33,1.76-4.75,2.54-4.4,7.48.36,4.9,6.37,33.99,8.06,38.01ZM414.33,100.93c1.7,0,5.92-.07,7.58-.06,1.54.01,10.75.97,11.39,1.42.82.58,1.2,1.8,1.53,2.73,2.14,6.15,4.28,21.99,5.06,28.96,1.01,9.06,2.31,13.51-8.07,15.13-9.61,1.5-20.63,1.3-30.37,1.34l-3.27-11.24c1.39.98,1.54,2.27,3.3,3.42,5.85,3.85,11.87,1.34,15.81-3.8,9.19-11.99,3.06-33.34-14.15-31.52-.42,1.92.58,1.21,1.41,1.75,2.38,1.57,5.12,2.88,7.13,4.95,5.39,5.55,7.41,17.14.69,22.35.73-3.94,1.96-9.53-1.07-12.74-5.04,7.43-4.44,1.77-7.14-1.38-2.15-2.52-6.48-3.89-9.51-2.17l-2.76-16.93c8.86-1.62,14.06-2.17,22.46-2.21ZM383.64,100.93c3.62,4.93,6.1,36.51,12.02,53.88l35.1-.02c-.29,1.38-1.42,1.24-2.48,1.41-8.02,1.3-22.44,2.33-30.47,2.18-7.49-.14-7.25-8.79-8.54-14.92-2.37-11.27-5.82-28.53-6.4-39.73-.06-1.18-.66-1.87.76-2.81ZM372.59,113.32c.18-1.63.89-.84,1.83-1.75l7.44,37.54c-1.41.22-2.12-.84-2.65-1.95-1.68-3.55-4.07-17.29-4.94-22-.53-2.9-1.97-9.3-1.69-11.84ZM366.64,114.39c1.85,2.12,2.96,11.44,3.36,13.63,1.34,7.4,3.32,14.81,4.75,22.21l-2.08,1.72c-1.03-.8-5.87-22.3-6.29-25.26-.52-3.61-1.81-9.35.27-12.3ZM360.25,117.23l6.02,36.85c-.84-.05-1.51.37-2.17-.44-1.69-2.06-5.88-25.08-6.24-29.05-.3-3.27-.54-5.32,2.39-7.35ZM350.13,123.44c.19-1.47,1.59-3.06,2.67-1.97.28.29.65,6.62.9,7.96,1.49,7.78,4.8,18.34,5.3,25.9.25,3.81-1.36,3.58-2.7.56-2.07-4.63-6.78-27.87-6.17-32.46ZM345.71,125.02l6.36,34.01c-1.55.04-2.91-1.56-3.33-2.67-1.81-4.75-4.58-18.12-5.06-23.29-.21-2.3-1.13-8.15,2.03-8.06ZM285.26,162.53l21.2-7.72c1.87-.07,11.47,2.13,11.47,2.13l-1.37,17.02s-21.11,6.06-26.66,7.63c-1.65.72-3.01-1.63-2.3-2.71.3-.46,9.71-3.45,11.25-3.95,1.97-.64,14.21-3.85,14.63-4.56,0,0,.01-.02.02-.03.83-1.45-.55-3.22-2.19-2.9-6.14,1.21-22.45,7.11-23.95,7.1-1.34,0-1.29-1.67-1.17-2.76,0,0,23.15-7.85,22.66-7.56,0,0,1.66-1.02,1.43-2.71-.83-1.3-1.68-1.13-3-.95l-21.54,7.21c-1.28-1.14-2.12-4.12-.48-5.27Z"/><path d="M270.65,208.05c-3.02-1.08-4.05-6.25-5.35-6.64-1.73-.52-3.89-.56-5.16,2.1-5.98,17.81,27.77,23.73,26.79,5.18-.3-5.63-9.63-16.27-14.5-9.68-3.44,4.65,4.64,7.15,4.62,8.66-2.24,1.66-5.19.81-6.4.38Z"/><path d="M327.3,209.59c.71-.46,14.72-3.38,16.48-3.57,2.05-.22,3.99.43,5.42.29,2.71-.27,5.82-1.69,8.72-1.48l-.7-3.22c-11.1-.75-21.94,2.77-32.7,4.92-1.13,5.93,1.5,6.92,6.18,5.99,4.87-.97,11.79-2.11,16.53-3.47.88-.25.37-.41.09-1.99l-10.31,1.95c-8.94,2.14-10.3.95-9.72.57Z"/><path d="M355.44,198.76c.58-.42,1.61-1.65,1.46-2.41-.59-.8-10.73,1.1-12.54,1.35-2.74.38-21.6,3.9-22.33,5.09l.65,1.64,1.42,1.44c4.13-1.47,8.37-2.6,12.65-3.53,3.18-.69,17.31-2.59,18.69-3.59Z"/><path d="M457.34,213.61c-.53,3.01,3.63,5.41,2.13,8.5-3.5-3.45-7.64-9.99-12.27-11.83-1.17-.47-4.85-.84-5.02-1.03-.48-.53.57-2.26-.79-2.02-3.82,13.38-4.52,46.21,9.65,53.76,3.65,1.95,7.44-2.33,9.36-5.34,7.86-12.28,7.06-31.3-3.08-42.05Z"/><path d="M470.08,204.41l-10.97.7c-.97,1.15,4.12,6.65,4.98,8.12,8.7,14.8,8.02,31.28-1.13,45.68-.79,1.24-7.39,6.75-2.8,7.16,1.53.14,9.79-1.38,11.4-2.1,7.03-3.17,10.34-21.02,10.29-28.05-.05-6.23-4.5-30.13-11.77-31.51Z"/><path d="M428.44,117.78c1.28,4.14,2.45,19.39,3.37,20.72,1.24,1.8,4.18.46,4.61-1.81.94-5.01-2.05-28.69-5.67-31.85-1.9-1.66-4.16-.9-6.42-.5-1.34.24-2.05,1.72-1.39,2.91,1.92,3.46,4.23,6.41,5.5,10.53Z"/><path d="M328.38,236.26c-2.09-3.21-10.23,5.79-11.6,7.59-11.74,15.41-7.39,39.45,6.23,52.36,3.1,2.94,8.65,7.34,12.97,6.53,7.01-1.32,17.94-10.27,22.37-15.9,7.25-9.2,10.27-15.74,11.07-20.02,1.31-7.1-.08-9.4-1.74-10.68-2.4-1.75-6.58,13.07-13.8,14.22,3.03-3.15,7.37-8.88,8.52-11.76,1.78-4.49,3.62-11.95-.15-12.18-2.51-.15-4.13,5.49-7.57,10.02-3.31,4.38-7.59,6.41-7.59,6.41,2-6.33,8.64-15.38,6.42-18.78-1.02-1.02-4.17-6.65-12.77,2.47-1.65,1.75-13.5,12.45-15.58,10.28-1.6-5.12,5.93-16.41,3.21-20.58Z"/><path d="M160.53,400.12c2.36,1.58,8.41,5.48,13.18,8.08l-4.14-26.91,36.53-12.97c-38.76-10.96-72.02-46.18-76.92-83.64-3.09-23.63.59-47.07,12.63-64.63,3.46-5.05,7.22-11.4,11.75-14.94,0,0-5.02-6.2-5.21-8.93-3.38,1.44-12.43,5.42-12.62,5.38l-1.63,3.24c-7.38,6.27-14.53,15.67-17.59,20.53-39.27,62.24-2.01,144.07,44.01,174.79Z"/><path d="M200.54,189.74c4.53.45,3.18-5.99-.55-5.31-2.89.53-2.46,5.01.55,5.31Z"/><path d="M126.92,198.5c29.8-2.32,18.63-12.11,24.85-16.23,3.92-2.59,4.66,3.65,12.59,2.71,10.44-1.97,14.84-5.83,17.33-11.21,1.4-2.89,1.56-6.99,4.55-9.83,4.9-4.66,13.92-1.97,17.41-1.47,6.7-.39,8.9-.54,14.63-2.1,10.76-2.94,10.47-6.23,22.84-8.42,0,0-1.21-8.29-10.41-22.28-9.68-14.72-16.49-23.45-32.67-18.48-19.37,5.94-36.79,19.17-53.78,38.26-8.07,9.07-14.64,16.54-23.03,33.89-2.82,5.83-6.5,16.11,5.69,15.16ZM215.38,126.12c8.61-3.49,15.03,13.85,3.95,14.53-7.35.45-10.62-11.83-3.95-14.53Z"/></svg>