<?xml version="1.0" encoding="UTF-8"?><svg id="Layer_1" xmlns="http://www.w3.org/2000/svg" viewBox="0 0 600 600"><path d="M333.23,328.68c1.39-9.81,5.69-19.49,2.48-27.82-1.22-1.67-3.9-3.36-6.82-3.42-8.74-.19-15.78-1.92-24.98,1-1.85,12.34-3.93,26.22-5.77,38.55,9.72,4.09,21.36,5.25,32.48-.26,1.69-1.51,2.15-4.77,2.61-8.04h0ZM320.37,326.11c-.46,3.2-5.29,6.03-7.51,1.06-3.67-5.02,3.31-12.55,2.77-18.94,2.91.12,7.51-1.3,8.27,3.56.76,4.89-1.39,9.61-3.54,14.32h0Z"/><path d="M340.34,340.93c8.96-.87,17,5.05,25.2-1.14,5.3-6.57-2.97-10.67-7.57-9.28,3.84-6.63,2.09-15.32,4.48-22.08,1.46.06,5.59,1.95,7.51-1.45,4.01-18.98-16.31-9.02-25.05-9.21-2.91-.06-2.15,4.92-2.62,8.22.99,3.36,5.59,1.87,8.5,1.99-3.84,6.55-1.86,13.4-4.24,19.99-1.46-.1-4.37-.31-5.82-.42-3.37,3.08-5.53,7.9-.4,13.37h0Z"/><path d="M384.23,343.24c5.82.53,14.09,4.96,17.93-2.07,3.61-5.26,4.78-14.43,2.57-20.09-3.2-9.31-14.56-.8-13.04,10.13-9.96-2.5-5.41-14.72-2.79-23.54,5.82.21,19.91,4.4,17.41-10.36-9.96-1.99-25.28-7.51-28.6,6.46-4.31,10.34-7.39,22.42-4.42,33.19,2.45,3.75,6.81,4.13,10.94,6.3h0Z"/><path d="M422.3,344.8c7.28.64,13.1,1.15,20.84-2.08-.52-7.86,1.87-15.51-.33-21.48-3.2-9.82-14.56-.76-13.05,10.79-9.95-2.57-3.95-15.46-1.33-24.83,5.82.19,18.46,4.5,15.96-11.08-8.27-3.95-18.46-4.06-27.9,1.4-5.01,16.53-11.19,42.09,5.8,47.3h0Z"/><path d="M451.64,345.4c8.73.75,16.24-.64,24.97.08,3.15-1.8,3.85-7.92,2.63-10.06-3.66-6.37-11.88,1.2-17-5.18.23-1.99.47-3.97.7-5.96,5.07-5.76,7.79,8.53,13.34-1.3,6.01-14.02-6.34-8.39-10.24-12.56l.47-3.98c4.37.13,9.96,2.33,14.56.44,3.38-3.99,5.54-10.08.42-16.26-9.21,3.93-16.25,1.85-24.99,1.76-4.79,15.58-5.44,33.22-7.32,48.86-.23,1.96,1.22,2.08,2.44,4.16h0Z"/><path d="M518.1,316.59c1.46.06,3.15-2.02,3.15-2.02.71-6.41,4.8-17.04.9-21.37-8.03-6.42-18.93-.21-27.43-2.36-4.79,16.35-5.45,34.86-7.34,51.27.75,6.28,8.03,6.9,11.64.9,1.93-4.06-.28-10.51,1.65-14.58,1.69-2,4.37.25,7.28.42,2.68,2.28.51,8.51,2.72,15.06-.47,4.23,6.8,4.83,9.95,2.93,5.31-8.27,7.2-25.52-2.52-30.25h0ZM510.07,309.92c-.24,2.1-2.16,6.25-6.29,3.98-1.22-2.14-.51-8.39,1.18-10.44,3.38-4.12,5.59,2.25,5.12,6.45h0Z"/><path d="M353.07,356.97c-3.13-.32-7.83-.8-9.86,2.63-2.97,10.57-1.48,23.54-10.48,31.3-5.09-9.78,2.81-21.32-.48-32.48.47-3.53-8.92-4.49-9.16-2.75-9.93,14.62-6.25,34.49,1.5,48.31,4.93-.93,10.96,1.98,16.12-.78,12.13-7.25,14.47-25.58,15.01-42.25.23-1.83-1.33-1.99-2.66-3.98h0Z"/><path d="M389.3,358.73c-8.29,3.02-17.22-1.71-25.28-.64-3.36,1.52-2.27,5.38-2.74,9.07,1.1,3.88,3.99,6.12,8.92,4.84-4.07,7.07-1.87,14.98-4.38,22.23-1.57-.24-4.7-.73-6.26-.97-3.6,3.2-5.87,8.46-.31,15.08,8.53-4.24,28.8,13.03,28.01-6.85-1.1-4.1-6.03-2.92-9.16-3.41,4.07-7.15,2.11-17.13,4.61-24.55,1.57.19,6.03,2.69,8.06-.98.47-3.86-.39-9.81-1.49-13.81h0Z"/><path d="M420.61,361.84c-8.06,1.21-13.62-5.34-22.15-.23-.54,17.72-7.35,34.56-2.96,51.16,11.66-4.04,21.68,5.84,32.01-.66,4.77-13.84,8.21-30.05,3.59-45.1.47-4.08-5.79-4.7-10.49-5.17h0ZM416.39,397.98c-.23,2.01-2.03,3.77-2.03,3.77-14.32-.22-2.82-16.65-3.22-26.79,3.13.37,6.5-1.26,7.83.93,3.99,6.62-.31,16.28-2.58,22.08h0Z"/><path d="M471.16,362.53c-9.86,3.36-17.45.48-26.84-.42-5,16.21-5.55,35.02-7.42,51.57-.23,2.07,1.1,4.41,2.66,4.68,9.63-.49,17.22,2.96,26.84,2.42,3.36-1.63,4.07-8.11,2.74-10.52-3.99-7.16-12.76.18-18.31-7.12.23-2.1.47-4.21.7-6.31,5.4-5.69,8.45,9.85,14.32-.15,6.33-14.44-6.89-9.57-11.12-14.38l.47-4.22c4.7.55,10.72,3.41,15.65,1.82,3.6-3.96,5.87-10.28.31-17.36h0Z"/><path d="M498.58,362.83c-6.03-2.77-12.76,1.05-14.79,5.26-9.47,14.34-4.84,30.33-8.05,45.33,8.22,12.48,29.67,20.77,36.47,1.14,2.74-11.15,4.14-24.82,3.75-36.38-.39-11.52-9.55-14.64-17.38-15.35h0ZM498.83,405.71c-1.8,2-7.2,7.97-8.06,1.09-2.43-7.07-1.49-15.89,1.01-24.52,2.27-6.46,10.09-5.61,10.96,1.27-.7,6.72-3.2,15.46-3.91,22.16h0Z"/><path d="M363.38,209.82c-17.18,3.57-29.07,6.46-43.67,10.01-2.54.62-11.63,2.27-9.09,7.18,2.33,4.51-4.51,3.31-7.25,8.21-4.11,7.36-4.16,16.72-2.56,24.8.37,1.87,4,12.29,3.5,12.92-1.33.3-.91-.36-1.35-.98-4.69-6.64-6.69-19.4-5.88-27.38.46-4.58,1.99-8.21,4-11.89-.94-.2-1.69-.45-2.25.08-5.9,5.71-7.13,17.43-5.86,25.17.7,4.23,2.78,8.17,3.51,12.39-8.35-11.13-10.64-31.02,2.61-40.67-2.11-2.6-7.24-2.74-10.11-2.13-12.73,2.68-22.28,5.25-35.18,8.33-12.89,3.08-20.72,4.78-32.85,7.87-10.38,2.64-8.4,5.53-13.63,18.54-.32.8-.04,1.26-.8,1.79-2.47-2.88-6.4-3.57-9.31-5.29-4.54-2.69-4.78-6.76-11.06-5.16-7.52,1.93-15.69,6.82-22.3,10.56-6.69,3.78-16.07,1.7-23.18.05l-3.26-2.76c6.86-.73,13.78,2.46,20.48.4,7.93-2.44,13.43-10.77,19.83-14.07,3.81-1.97,16.8-3.33,19.13-5.38.48-.42.68-.57.53-1.28-6.33-2.32-10.05-9-5.74-14.7.84-1.11,2.49-2.1,3.82-2.83,3.28-1.79,6.63-2.6,8.3-2.67.78-1.14-7.05-10.22-8.2-11.63-2.61-3.2-5.1-6.32-8.22-8.93-.54-.45-4.44-3.37-4.71-3.48-1.99-.86-10.4-.35-12.91.67-19.48,7.86-27.67.56-33.62,13.89-4.18,2.32-17.24,10.31-20.87,4.63-4.99,2.14-1.64,8.63.96,12.95,0,0-1.63-6.96-1.09-8.58.54-1.62,1.44-.71,1.44-.71-.07,1.7.37,4.2,1.55,5.49,2.42,2.65,10.57,1.02,2.68,7.28,5.43,8.7,2.83,21.22,10.83,28.8-14.97,33.14,2.5,68.54,35.92,80.35,22.51,7.95,45.59.92,62.97-14.5,1.8-1.59,11.75-11.8,10.98-13.56-3.11-3.23-8.39-4.37-10.18-8.85,3.73,3.27,12.94,11.8,14.56,2.43-4.36-2.63-8.08-5.61-11.45-9.45-1.32-1.51-7.19-10.4-8.06-10.18-2.06,2.26-3,4.26-1.84,7.3-2.7-1.64-3.64,1.17-5.49,2.59-8.18,6.29-16.04,11.21-26.59,12.52-1.89.23-4.44-.38-6.14.12-1.02.3-2.7,2.79-4.26,3.57-1.52.76-3.24.81-4.79,1.48-2.28.46,2.51-4.55,1.89-5.15l-9.91,4.16c-.4-.31,4.85-6.35,4.17-7.81-.93-.94-8.23,5.71-10.43,4.69-.99-.96,4.06-6.39,4.68-7.56-.79-1.11-.73-.51-1.37-.35-2.69.64-5.74,3.49-8.27,4.77-3.12-2.03,5.1-8.28,3.91-9.37-3.19-.28-5.08,2.98-8.07,3.65-2.09-.44,1.49-7.5,2.32-8.61-1.48-2.62-6.62,3.07-7.29,2.35-.29-2.38,3.52-5.58,5.44-6.29,7.6-2.84,20.77,5.84,26.12,10.99l-3.91-9.91c6.41,1.31,12.01,9.73,18.43,9.34,4.36-.27,18.53-5.72,21.46-8.82,1.81-1.91.98-3.38,1.7-5.6,1.13-3.47,4.68-6.61,8.23-7.42.5-6.71-.53-12.14,2.39-18.47,1.64-3.57,9.01-10.91,12.83-11.68,6.54-1.32,6.41,6.37,5.36,10.83,3.41-3.09,8.55-9.21,13.57-7.62,3.52,1.11,3.58,5.32,4.9,6.36,1.31,1.04,3.21-1.47,4.81.52,1.26,1.56,2.34,3.02,1.78,6.19-.09.5,2.9,1.28,4.04,3.26,3.46,5.99-2.25,20.15-6.71,25.19,13.06-1.27,22.83-2.21,37.66-3.65,15.73-1.53,32.71-2.44,47.23-4.58,2.85-.42,10-.48,11.4-5.81.65-2.46-.66-12.28-1.4-16.46-3.97-22.5-3.46-26.39-.1-32.58,2.26-4.37,4.15-3.14,5.15-6.24.65-2.02-3.45-13.5-5.9-13.59ZM144.21,243.72c3.03-4.6,28.05-9.59,30.77-7.29-.51,1.87-3.95,1.36-5.47,1.56-8.6,1.18-17.15,2.72-25.3,5.73ZM164.81,244.25c-5.26.61-11.73,3.12-11.73,3.12,6.38-4.94,15.61-5.89,23.47-6.25,0,0-3.4,2.15-11.73,3.12ZM177.59,231.22c.12.74-.92.75-1.45.88-5.39,1.33-11.05.31-16.53.68-5.5.37-10.96,2.01-16.43,2.6,1.18-1.26,3.47-1.96,5.1-2.45,9.11-2.79,20.02-3.65,29.32-1.71ZM147.2,209.95c9.81-1.79,13.34,15.14,1.44,13.95-7.9-.78-9.03-12.57-1.44-13.95ZM309.29,265.63c-1.31-4.09-3.36-10.68-1.57-14.6,1.68,7.6,2.99,15.38,6.52,22.42-3.01-.77-4.12-5.22-4.95-7.82ZM352.3,274.23c-3.26,3.38-16.81,5.56-21.01,4.33-2.89-.85-5.8-10.32-6.6-13.22-2.03-7.38-3.25-16.82-2.63-24.47.17-2.12,2.16-13.11,3.99-13.74,1.04-.36,6.79-1.05,8.24-1.15,4.21-.28,11.21-.62,14.67,1.82,9.85,6.96,11.54,37.93,3.34,46.44Z"/><path d="M259.74,424.7c-3.2,2.05-6.5-.6-5.08-5.06,2.18-6.86,17.88-19.52,23.33-25.69,11.43-12.96,25.78-35.42,15.04-51.66-2.13-3.22-3.97-5.5-6.73-9.27-3.32-4.54-8.27-11.11-11.57-15.72-3.04-4.25-8.57-2.41-10.08-2.45-1.92-.05-5.81,1.23-8.32.33l8.63-2.57c11.42-3.31,14.21,3.84,21.14,3.17,2.3-.84,2.63-7.97,2.81-9.72.39-3.97,1.19-8.59-.86-8.43,0,0-17.4,1.63-21.04,2.41-1.47.31-14.64,4.63-15.38,5.49-.81.94-.39,2.5-.91,3.79-1.93,4.79-6.93,11.1-10.21,14.99-11,13.04-21.44,20.93-37.13,25.97-8.65,2.78-24.12,5.18-38.58,2.59-.25.35,2.64,4.06,1.21,6.62-.4.72-1.94,2.96-3.46,4.03-16.29,11.53-24.88,23.08-31.39,43.93-1.44,4.61-.15,9.45,2.85,11.82.9.71,9.61,9.26,8.05,11.65-.32.49-2.24-.92-11.9-6.07-12.96-6.91-33.13,9.17-25.34,23.61,1.27,2.35,16.93,4.06,30.31,3.08,10.45-.76,22.68-1.64,37.37-7.64,2.63-1.07,8.56-.59,12.64-3.02,1.27-.81.46-1.99,0-3.12-1.06-2.56-3.24-7.03-4.52-9.58-.59-1.16-2.39-.42-1.06-3.33.9-1.98,8.43-6.08,10.8-7.97,4.71-3.76,11.09-10.5,15.15-15.1,2.27-2.57,4.36-5.5,6.25-8.36,1.94.09-3.18,12.09-3.91,13.04,2.24,1.61,21.34-6.85,25.05-8.07,2.36-.77,4.83-1.44,7.29-1.83l-10.93,6.59c2.59,6.28-2.26,14.18-5.15,19.84-1.85,3.63-8.01,10-2.54,13.31,5.8,3.51,36.96,7.2,45.12,7.35,13.88.25,20.34-.46,34.27-4.97,3.15-1.02,4.69-11.24-1.73-17.28-12.81-12.04-30.25-2.61-39.48,3.3Z"/><path d="M208.1,216.09c1.15,2.73,5.36,5.07,6.96,7.65,1.42,2.29,1.02,4.84,2.69,6.7,1.08.54,5.11.61,6.46.19,16.82-5.27,32.15-7.68,37.86-8.59,3.25-.52,30.66-6.83,30.66-6.83.3-.59-1.45-7.99-1.45-7.99-8.29.76-17.05,2.54-25.29,3.13-2.05.14-9.42.99-10.44-.5-2.14-3.12-6.56-27.1-7.55-33.16l1.31-2.31,7.68,33.77c1.2,1.23,10.41.41,12.65.11,20.93-2.8,32.45-6.98,50.51-11.99,8.3-2.3,11.61-1.47,10.7-10.61-.76-7.72-2.71-17.27-4.26-24.95-1.24-6.17-.82-12.33-8.44-12.41-10.93-.12-29.93-.53-35.11,1.68-26.12,11.15-53.52,22.85-77.63,32.65-3.19,1.3-3.5,1.87-3.24,5.5.26,3.6,4.69,25.01,5.93,27.97ZM306.31,153.5c1.25,0,4.36-.05,5.58-.04,1.13,0,7.91.71,8.38,1.05.6.43.89,1.32,1.12,2.01,1.57,4.52,3.15,16.18,3.72,21.31.75,6.67,1.7,9.94-5.94,11.13-7.07,1.1-15.18.96-22.35.99l-2.41-8.27c1.03.72,1.13,1.67,2.43,2.52,4.3,2.83,8.74.98,11.63-2.8,6.76-8.83,2.25-24.54-10.41-23.19-.31,1.42.43.89,1.03,1.29,1.75,1.15,3.77,2.12,5.24,3.64,3.96,4.08,5.45,12.61.5,16.45.54-2.9,1.45-7.01-.79-9.38-3.71,5.47-3.27,1.3-5.25-1.02-1.58-1.85-4.77-2.86-7-1.6l-2.03-12.46c6.52-1.19,10.35-1.59,16.53-1.63ZM283.73,153.5c2.67,3.63,4.49,26.87,8.85,39.65h25.83c-.21,1-1.05.9-1.82,1.03-5.9.96-16.51,1.72-22.42,1.61-5.51-.1-5.33-6.47-6.28-10.98-1.74-8.29-4.28-20.99-4.71-29.24-.05-.87-.49-1.38.56-2.07ZM275.6,162.62c.14-1.2.65-.62,1.35-1.29l5.47,27.63c-1.04.16-1.56-.62-1.95-1.44-1.24-2.62-3-12.72-3.63-16.19-.39-2.13-1.45-6.84-1.24-8.72ZM271.22,163.41c1.36,1.56,2.18,8.42,2.47,10.03.99,5.45,2.44,10.9,3.49,16.34l-1.53,1.26c-.76-.59-4.32-16.41-4.63-18.59-.38-2.66-1.33-6.88.2-9.05ZM266.52,165.5l4.43,27.12c-.62-.04-1.11.27-1.6-.32-1.24-1.52-4.33-18.46-4.59-21.38-.22-2.4-.4-3.92,1.76-5.41ZM259.07,170.07c.14-1.08,1.17-2.25,1.96-1.45.21.21.48,4.87.67,5.86,1.1,5.73,3.53,13.5,3.9,19.06.19,2.8-1,2.63-1.99.41-1.52-3.41-4.99-20.51-4.54-23.89ZM255.82,171.24l4.68,25.03c-1.14.03-2.14-1.15-2.45-1.96-1.33-3.5-3.37-13.34-3.72-17.14-.16-1.69-.83-6,1.5-5.93ZM211.33,198.84l15.6-5.68c1.38-.05,8.44,1.57,8.44,1.57l-1.01,12.53s-15.54,4.46-19.62,5.62c-1.21.53-2.21-1.2-1.69-1.99.22-.34,7.15-2.54,8.28-2.91,1.45-.47,10.46-2.83,10.77-3.35,0,0,0-.01.01-.02.61-1.06-.41-2.37-1.61-2.13-4.52.89-16.52,5.23-17.63,5.23-.99,0-.95-1.23-.86-2.03,0,0,17.04-5.78,16.67-5.56,0,0,1.22-.75,1.05-1.99-.61-.96-1.23-.83-2.21-.7l-15.85,5.31c-.94-.84-1.56-3.04-.36-3.88Z"/><path d="M200.58,232.34c-2.22-.8-2.98-4.6-3.94-4.89-1.27-.38-2.86-.41-3.8,1.54-4.4,13.1,20.44,17.46,19.71,3.81-.22-4.14-7.08-11.97-10.67-7.12-2.53,3.43,3.42,5.26,3.4,6.38-1.65,1.23-3.82.6-4.71.28Z"/><path d="M242.27,233.47c.52-.34,10.84-2.49,12.13-2.62,1.51-.16,2.94.32,3.99.21,1.99-.2,4.28-1.25,6.41-1.09l-.51-2.37c-8.17-.55-16.14,2.04-24.06,3.62-.83,4.36,1.11,5.09,4.55,4.4,3.58-.72,8.68-1.56,12.17-2.55.65-.18.27-.31.06-1.46l-7.59,1.43c-6.58,1.57-7.58.7-7.15.42Z"/><path d="M262.97,225.5c.42-.31,1.18-1.22,1.07-1.78-.43-.59-7.9.81-9.23,1-2.01.28-15.9,2.87-16.43,3.75l.48,1.21,1.05,1.06c3.04-1.08,6.16-1.91,9.31-2.6,2.34-.51,12.74-1.9,13.76-2.64Z"/><path d="M337.96,236.43c-.39,2.22,2.67,3.98,1.57,6.25-2.57-2.54-5.62-7.35-9.03-8.7-.86-.34-3.57-.62-3.69-.76-.35-.39.42-1.66-.58-1.48-2.81,9.85-3.32,34,7.1,39.57,2.69,1.43,5.48-1.72,6.89-3.93,5.79-9.04,5.19-23.04-2.27-30.94Z"/><path d="M347.34,229.66l-8.07.51c-.71.84,3.03,4.9,3.67,5.98,6.4,10.89,5.9,23.02-.83,33.62-.58.91-5.44,4.96-2.06,5.27,1.13.1,7.2-1.01,8.39-1.55,5.17-2.33,7.61-15.47,7.57-20.64-.03-4.58-3.31-22.17-8.66-23.19Z"/><path d="M316.7,165.91c.94,3.04,1.8,14.27,2.48,15.25.92,1.32,3.07.34,3.39-1.33.7-3.69-1.51-21.11-4.17-23.44-1.4-1.22-3.06-.66-4.73-.37-.98.18-1.51,1.26-1.02,2.14,1.42,2.55,3.11,4.72,4.05,7.75Z"/><path d="M243.07,253.1c-1.54-2.36-7.53,4.26-8.54,5.59-8.64,11.34-5.44,29.03,4.58,38.53,2.28,2.16,6.37,5.4,9.55,4.81,5.16-.97,13.2-7.56,16.46-11.7,5.33-6.77,7.56-11.58,8.14-14.73.97-5.22-.06-6.91-1.28-7.86-1.77-1.29-4.84,9.62-10.15,10.47,2.23-2.32,5.43-6.53,6.27-8.65,1.31-3.3,2.66-8.8-.11-8.96-1.84-.11-3.04,4.04-5.57,7.38-2.44,3.22-5.59,4.72-5.59,4.72,1.47-4.66,6.36-11.32,4.72-13.82-.75-.75-3.07-4.9-9.4,1.82-1.21,1.29-9.93,9.16-11.46,7.57-1.18-3.77,4.36-12.08,2.36-15.14Z"/><path d="M119.54,373.67c1.74,1.16,6.19,4.03,9.7,5.94l-3.05-19.81,26.88-9.54c-28.52-8.07-53-33.99-56.61-61.55-2.27-17.39.44-34.64,9.29-47.56,2.55-3.72,5.31-8.39,8.64-11,0,0-3.7-4.56-3.83-6.57-2.49,1.06-9.15,3.99-9.29,3.96l-1.2,2.38c-5.43,4.62-10.69,11.53-12.95,15.1-28.9,45.8-1.48,106.02,32.39,128.63Z"/><path d="M148.99,218.86c3.33.33,2.34-4.41-.4-3.91-2.13.39-1.81,3.69.4,3.91Z"/><path d="M94.81,225.3c21.93-1.71,13.71-8.91,18.29-11.94,2.89-1.91,3.43,2.69,9.26,2,7.68-1.45,10.92-4.29,12.76-8.25,1.03-2.13,1.15-5.14,3.35-7.24,3.61-3.43,10.24-1.45,12.81-1.08,4.93-.29,6.55-.4,10.76-1.55,7.92-2.16,7.7-4.58,16.81-6.19,0,0-.89-6.1-7.66-16.4-7.12-10.83-12.13-17.25-24.04-13.6-14.26,4.37-27.07,14.11-39.58,28.15-5.94,6.67-10.78,12.17-16.95,24.94-2.07,4.29-4.79,11.86,4.19,11.16ZM159.9,172.04c6.34-2.57,11.06,10.19,2.91,10.7-5.41.33-7.81-8.71-2.91-10.7Z"/></svg>