<?xml version="1.0" encoding="UTF-8"?><svg id="Layer_1" xmlns="http://www.w3.org/2000/svg" viewBox="0 0 600 600"><defs><style>.cls-1{fill:#fff;}</style></defs><rect width="600" height="600"/><path class="cls-1" d="M395.13,317.86c.62-6.68,3.22-13.37.78-18.91-.88-1.09-2.75-2.15-4.72-2.1-5.92.15-10.74-.79-16.88,1.48-.85,8.41-1.81,17.87-2.67,26.28,6.71,2.46,14.63,2.86,21.97-1.22,1.09-1.07,1.3-3.3,1.51-5.53h0ZM386.34,316.53c-.21,2.18-3.39,4.25-5.05.96-2.65-3.28,1.83-8.6,1.27-12.91,1.97-.01,5.04-1.12,5.71,2.15.67,3.28-.63,6.55-1.93,9.8h0Z"/><path class="cls-1" d="M400.34,325.92c6.04-.87,11.67,2.87,17.02-1.58,3.37-4.62-2.35-7.13-5.42-6.04,2.39-4.61.92-10.44,2.32-15.08.99,0,3.85,1.14,5.04-1.22,2.1-12.98-11.33-5.58-17.25-5.42-1.97.05-1.3,3.4-1.51,5.65.78,2.24,3.84,1.09,5.82,1.07-2.39,4.56-.82,9.13-2.23,13.66-.99-.02-2.96-.07-3.95-.09-2.18,2.2-3.48,5.52.16,9.06h0Z"/><path class="cls-1" d="M430.11,326.07c3.96.17,9.69,2.9,12.07-1.98,2.27-3.67,2.77-9.92,1.09-13.68-2.47-6.2-9.88-.07-8.5,7.27-6.82-1.37-4.14-9.79-2.65-15.84,3.95-.05,13.62,2.33,11.45-7.58-6.8-1.03-17.35-4.26-19.14,5.29-2.58,7.14-4.28,15.41-1.92,22.6,1.78,2.46,4.74,2.58,7.61,3.91h0Z"/><path class="cls-1" d="M455.92,325.9c4.94.2,8.9.36,14.04-2.08-.6-5.3.77-10.56-.92-14.53-2.48-6.55-9.88-.05-8.48,7.72-6.82-1.42-3.17-10.34-1.7-16.76,3.95-.06,12.64,2.45,10.45-8.01-5.72-2.41-12.62-2.15-18.84,1.84-2.86,11.35-6.22,28.84,5.45,31.82h0Z"/><path class="cls-1" d="M475.8,325.36c5.93.22,10.97-.96,16.9-.75,2.07-1.32,2.35-5.48,1.46-6.89-2.68-4.19-8,1.2-11.67-2.96.09-1.35.19-2.7.28-4.06,3.25-4.06,5.55,5.52,8.98-1.31,3.62-9.68-4.56-5.48-7.33-8.17l.19-2.71c2.96-.05,6.81,1.25,9.87-.17,2.16-2.81,3.43-7-.24-11.02-6.1,2.96-10.94,1.78-16.86,1.99-2.74,10.7-2.61,22.66-3.38,33.3-.1,1.33.89,1.37,1.79,2.74h0Z"/><path class="cls-1" d="M519.85,303.72c.99,0,2.07-1.47,2.07-1.47.27-4.36,2.7-11.68-.08-14.49-5.64-4.08-12.82.47-18.64-.71-2.72,11.22-2.57,23.77-3.31,34.94.71,4.22,5.65,4.41,7.91.23,1.17-2.81-.53-7.1.65-9.92,1.08-1.41,2.96.03,4.94.05,1.88,1.46.62,5.75,2.32,10.11-.18,2.88,4.76,3.05,6.83,1.66,3.33-5.77,4.05-17.5-2.68-20.39h0ZM514.2,299.47c-.09,1.43-1.26,4.3-4.13,2.9-.89-1.41-.62-5.66.46-7.1,2.16-2.9,3.85,1.34,3.67,4.2h0Z"/><path class="cls-1" d="M409.47,336.36c-2.13-.12-5.32-.29-6.59,2.1-1.67,7.25-.24,15.98-6.08,21.52-3.76-6.46,1.22-14.52-1.37-21.97.2-2.4-6.18-2.75-6.29-1.57-6.25,10.21-3.12,23.54,2.57,32.65,3.31-.79,7.48.98,10.88-1.05,7.97-5.3,8.97-17.78,8.8-29.08.1-1.25-.96-1.31-1.93-2.61h0Z"/><path class="cls-1" d="M434.05,336.39c-5.52,2.31-11.71-.6-17.13.38-2.23,1.14-1.36,3.71-1.56,6.23.87,2.59,2.9,4.02,6.19,2.98-2.52,4.92-.79,10.2-2.25,15.18-1.07-.11-3.2-.34-4.27-.46-2.33,2.28-3.7,5.91.28,10.22,5.64-3.15,19.91,7.89,18.74-5.54-.87-2.74-4.17-1.78-6.31-2.01,2.52-4.97.87-11.66,2.33-16.76,1.07.08,4.17,1.62,5.42-.92.19-2.63-.58-6.63-1.45-9.3h0Z"/><path class="cls-1" d="M455.33,337.49c-5.42,1.08-9.39-3.17-15,.56.2,12.01-3.86,23.63-.35,34.72,7.76-3.11,14.86,3.26,21.64-1.48,2.78-9.52,4.59-20.6.97-30.64.19-2.77-4.07-2.99-7.26-3.16h0ZM453.64,362.08c-.09,1.37-1.25,2.62-1.25,2.62-9.7.31-2.45-11.18-3.04-18.02,2.13.15,4.36-1.06,5.33.38,2.92,4.35.32,11.03-1.03,15.03h0Z"/><path class="cls-1" d="M489.57,336.32c-6.56,2.59-11.79.89-18.18.58-2.86,11.13-2.63,23.88-3.36,35.14-.09,1.41.88,2.95,1.95,3.08,6.5-.64,11.75,1.45,18.24.77,2.22-1.21,2.49-5.62,1.51-7.2-2.93-4.72-8.63.53-12.62-4.23.09-1.43.18-2.86.27-4.29,3.47-4.02,6.04,6.39,9.69-.57,3.82-9.98-4.97-6.25-7.99-9.37l.18-2.87c3.2.22,7.37,1.96,10.65.73,2.31-2.79,3.64-7.14-.35-11.76h0Z"/><path class="cls-1" d="M508.13,335.64c-4.17-1.68-8.6,1.12-9.84,4.04-5.94,10.01-2.3,20.68-3.99,30.94,5.97,8.18,20.75,13.1,24.72-.4,1.49-7.64,2-16.93,1.36-24.74-.64-7.78-6.94-9.6-12.26-9.83h0ZM509.68,364.66c-1.15,1.41-4.61,5.62-5.42.99-1.87-4.71-1.52-10.7-.11-16.63,1.33-4.44,6.65-4.12,7.46.51-.26,4.57-1.67,10.57-1.93,15.13h0Z"/><path class="cls-1" d="M461.18,179.24c-23,4.78-38.93,8.65-58.48,13.4-3.39.83-15.57,3.04-12.17,9.61,3.12,6.03-6.04,4.43-9.71,10.99-5.51,9.86-5.57,22.39-3.42,33.2.5,2.51,5.36,16.45,4.69,17.3-1.78.4-1.22-.48-1.81-1.31-6.29-8.9-8.96-25.99-7.88-36.66.62-6.13,2.66-10.99,5.36-15.92-1.26-.26-2.27-.61-3.01.11-7.9,7.65-9.55,23.34-7.84,33.71.93,5.67,3.72,10.94,4.7,16.59-11.18-14.91-14.24-41.53,3.5-54.46-2.83-3.48-9.69-3.67-13.54-2.86-17.05,3.59-29.84,7.02-47.11,11.15-17.27,4.13-27.74,6.4-43.99,10.54-13.9,3.54-11.25,7.41-18.25,24.83-.43,1.07-.05,1.69-1.07,2.4-3.3-3.86-8.58-4.78-12.46-7.08-6.08-3.6-6.4-9.06-14.81-6.9-10.07,2.58-21.01,9.14-29.86,14.13-8.96,5.06-21.51,2.28-31.04.07l-4.36-3.69c9.18-.97,18.46,3.3,27.43.54,10.62-3.27,17.98-14.42,26.55-18.84,5.11-2.63,22.5-4.46,25.62-7.2.65-.57.91-.77.71-1.72-8.48-3.1-13.46-12.05-7.69-19.69,1.12-1.48,3.34-2.81,5.12-3.79,4.4-2.4,8.88-3.48,11.11-3.57,1.05-1.53-9.44-13.69-10.97-15.57-3.49-4.28-6.83-8.47-11-11.96-.73-.61-5.95-4.51-6.31-4.66-2.67-1.15-13.92-.46-17.29.9-26.09,10.53-37.06.75-45.02,18.6-5.59,3.11-23.09,13.81-27.95,6.2-6.68,2.86-2.19,11.56,1.28,17.34,0,0-2.18-9.32-1.46-11.49.72-2.17,1.93-.95,1.93-.95-.1,2.28.5,5.63,2.07,7.36,3.24,3.55,14.15,1.36,3.58,9.75,7.27,11.65,3.79,28.41,14.51,38.56-20.04,44.37,3.34,91.78,48.1,107.59,30.14,10.65,61.05,1.23,84.32-19.41,2.41-2.14,15.74-15.8,14.71-18.15-4.17-4.32-11.23-5.85-13.63-11.86,5,4.38,17.33,15.8,19.49,3.25-5.84-3.52-10.82-7.51-15.33-12.66-1.76-2.02-9.62-13.93-10.79-13.64-2.76,3.03-4.02,5.71-2.46,9.78-3.62-2.2-4.87,1.57-7.35,3.47-10.95,8.42-21.48,15.02-35.61,16.77-2.52.31-5.95-.51-8.22.16-1.36.4-3.61,3.74-5.7,4.78-2.04,1.01-4.34,1.08-6.41,1.98-3.05.62,3.36-6.09,2.53-6.9l-13.27,5.58c-.53-.42,6.5-8.51,5.58-10.47-1.25-1.26-11.02,7.65-13.96,6.28-1.33-1.29,5.44-8.56,6.27-10.12-1.06-1.48-.97-.68-1.84-.47-3.6.86-7.69,4.67-11.07,6.39-4.18-2.72,6.83-11.09,5.24-12.55-4.27-.38-6.8,3.99-10.81,4.89-2.8-.59,1.99-10.04,3.11-11.53-1.99-3.51-8.86,4.11-9.76,3.14-.38-3.18,4.72-7.47,7.28-8.43,10.18-3.8,27.81,7.82,34.97,14.71l-5.23-13.27c8.58,1.75,16.08,13.04,24.68,12.5,5.84-.36,24.81-7.66,28.74-11.81,2.42-2.56,1.31-4.53,2.28-7.5,1.52-4.65,6.27-8.85,11.02-9.93.67-8.98-.7-16.25,3.2-24.74,2.2-4.77,12.07-14.61,17.18-15.64,8.76-1.76,8.58,8.54,7.18,14.51,4.56-4.14,11.45-12.34,18.18-10.21,4.71,1.49,4.79,7.12,6.56,8.52,1.76,1.39,4.29-1.97,6.44.69,1.68,2.09,3.13,4.05,2.38,8.28-.12.67,3.88,1.72,5.41,4.37,4.63,8.02-3.02,26.99-8.98,33.73,17.49-1.7,30.58-2.97,50.43-4.89,21.07-2.04,43.8-3.26,63.24-6.13,3.82-.56,13.39-.65,15.26-7.78.87-3.29-.89-16.44-1.88-22.04-5.32-30.13-4.63-35.34-.14-43.63,3.03-5.86,5.56-4.2,6.9-8.36.87-2.71-4.62-18.08-7.91-18.2ZM167.68,224.64c4.06-6.16,37.57-12.84,41.21-9.76-.69,2.5-5.29,1.82-7.33,2.1-11.51,1.58-22.97,3.64-33.88,7.67ZM195.27,225.34c-7.04.82-15.71,4.18-15.71,4.18,8.54-6.62,20.91-7.89,31.42-8.37,0,0-4.56,2.88-15.71,4.18ZM212.38,207.89c.17.99-1.24,1.01-1.94,1.18-7.22,1.78-14.8.42-22.14.91-7.37.49-14.68,2.69-22.01,3.48,1.58-1.69,4.65-2.62,6.83-3.29,12.19-3.73,26.81-4.89,39.26-2.28ZM171.69,179.42c13.13-2.39,17.86,20.27,1.93,18.69-10.58-1.05-12.1-16.83-1.93-18.69ZM388.73,253.97c-1.75-5.47-4.5-14.3-2.1-19.55,2.25,10.18,4.01,20.6,8.73,30.02-4.03-1.03-5.52-6.99-6.63-10.47ZM446.34,265.5c-4.36,4.53-22.51,7.45-28.13,5.8-3.87-1.14-7.76-13.81-8.83-17.71-2.72-9.89-4.35-22.53-3.52-32.77.23-2.84,2.89-17.55,5.35-18.4,1.4-.48,9.09-1.41,11.03-1.54,5.64-.38,15.02-.84,19.64,2.43,13.19,9.32,15.45,50.8,4.47,62.19Z"/><path class="cls-1" d="M322.39,466.98c-4.29,2.75-8.7-.81-6.8-6.78,2.93-9.19,23.94-26.13,31.24-34.41,15.3-17.35,34.53-47.43,20.14-69.18-2.85-4.31-5.32-7.37-9.01-12.42-4.45-6.07-11.07-14.88-15.49-21.05-4.07-5.69-11.48-3.22-13.49-3.27-2.57-.07-7.78,1.64-11.14.44l11.56-3.44c15.29-4.43,19.03,5.14,28.3,4.24,3.08-1.12,3.53-10.67,3.76-13.02.53-5.32,1.59-11.5-1.16-11.29,0,0-23.3,2.18-28.17,3.22-1.97.42-19.6,6.19-20.6,7.35-1.08,1.25-.53,3.35-1.22,5.07-2.58,6.41-9.28,14.86-13.68,20.08-14.73,17.46-28.71,28.02-49.72,34.78-11.58,3.72-32.3,6.93-51.66,3.46-.33.47,3.53,5.44,1.62,8.87-.54.96-2.59,3.96-4.63,5.4-21.82,15.44-33.31,30.91-42.04,58.83-1.93,6.17-.2,12.66,3.81,15.82,1.21.96,12.87,12.4,10.79,15.61-.42.65-3-1.23-15.93-8.13-17.35-9.26-44.37,12.28-33.94,31.62,1.7,3.15,22.67,5.43,40.59,4.12,13.99-1.02,30.37-2.19,50.04-10.23,3.52-1.44,11.46-.79,16.93-4.05,1.7-1.08.62-2.66-.01-4.18-1.42-3.43-4.34-9.42-6.06-12.82-.78-1.55-3.2-.57-1.43-4.47,1.2-2.65,11.29-8.15,14.46-10.68,6.31-5.04,14.85-14.07,20.28-20.22,3.04-3.45,5.84-7.36,8.37-11.19,2.6.12-4.26,16.19-5.24,17.46,2.99,2.16,28.58-9.18,33.54-10.8,3.16-1.03,6.47-1.93,9.76-2.45l-14.63,8.82c3.46,8.42-3.03,18.99-6.9,26.56-2.48,4.86-10.73,13.39-3.4,17.83,7.77,4.7,49.49,9.65,60.42,9.85,18.59.34,27.23-.61,45.89-6.65,4.22-1.37,6.28-15.06-2.31-23.14-17.16-16.13-40.5-3.49-52.86,4.42Z"/><path class="cls-1" d="M253.24,187.63c1.54,3.66,7.18,6.79,9.31,10.24,1.9,3.07,1.37,6.48,3.6,8.98,1.44.72,6.84.82,8.65.25,22.52-7.06,43.06-10.28,50.7-11.5,4.35-.69,41.06-9.15,41.06-9.15.41-.78-1.94-10.7-1.94-10.7-11.11,1.02-22.83,3.41-33.87,4.19-2.74.19-12.61,1.33-13.98-.67-2.87-4.17-8.79-36.29-10.12-44.4l1.76-3.1,10.29,45.22c1.61,1.65,13.94.56,16.94.15,28.03-3.76,43.46-9.35,67.64-16.06,11.12-3.09,15.54-1.97,14.33-14.21-1.02-10.33-3.63-23.13-5.7-33.41-1.67-8.26-1.1-16.51-11.31-16.62-14.64-.16-40.07-.71-47.01,2.25-34.97,14.93-71.66,30.59-103.96,43.72-4.27,1.73-4.68,2.51-4.33,7.37.35,4.82,6.28,33.5,7.95,37.45ZM384.75,103.82c1.67,0,5.84-.07,7.47-.06,1.52.01,10.6.95,11.23,1.4.81.57,1.19,1.77,1.5,2.69,2.1,6.06,4.22,21.67,4.99,28.54,1,8.93,2.28,13.31-7.95,14.91-9.47,1.48-20.33,1.28-29.93,1.32l-3.23-11.08c1.37.97,1.52,2.23,3.25,3.37,5.76,3.79,11.7,1.32,15.58-3.75,9.06-11.82,3.02-32.86-13.95-31.06-.42,1.9.57,1.19,1.38,1.73,2.34,1.54,5.04,2.84,7.02,4.87,5.31,5.47,7.3,16.89.68,22.03.72-3.88,1.94-9.39-1.05-12.56-4.97,7.33-4.38,1.74-7.03-1.36-2.12-2.48-6.38-3.83-9.37-2.14l-2.72-16.68c8.73-1.59,13.85-2.13,22.13-2.18ZM354.51,103.82c3.57,4.86,6.01,35.98,11.85,53.1l34.59-.02c-.28,1.36-1.4,1.22-2.44,1.39-7.9,1.28-22.11,2.3-30.03,2.15-7.38-.14-7.14-8.66-8.41-14.7-2.34-11.11-5.73-28.11-6.31-39.15-.06-1.16-.65-1.85.75-2.77ZM343.62,116.04c.18-1.61.88-.83,1.81-1.73l7.33,37c-1.39.21-2.09-.83-2.61-1.92-1.65-3.5-4.01-17.04-4.86-21.68-.53-2.86-1.94-9.17-1.66-11.67ZM337.76,117.09c1.83,2.08,2.92,11.27,3.31,13.44,1.32,7.3,3.27,14.59,4.68,21.88l-2.05,1.69c-1.01-.78-5.78-21.97-6.2-24.89-.51-3.56-1.79-9.21.26-12.12ZM331.46,119.89l5.93,36.31c-.83-.05-1.49.36-2.14-.43-1.67-2.03-5.79-24.72-6.15-28.63-.29-3.22-.53-5.25,2.36-7.25ZM321.49,126.01c.19-1.44,1.57-3.01,2.63-1.94.28.28.64,6.53.89,7.85,1.47,7.67,4.73,18.07,5.23,25.53.25,3.76-1.34,3.52-2.67.55-2.04-4.56-6.68-27.47-6.08-31.99ZM317.14,127.57l6.26,33.52c-1.53.04-2.87-1.54-3.28-2.63-1.78-4.68-4.52-17.86-4.99-22.95-.21-2.26-1.11-8.03,2-7.94ZM257.56,164.53l20.89-7.61c1.85-.06,11.3,2.1,11.3,2.1l-1.35,16.77s-20.8,5.97-26.27,7.52c-1.63.71-2.96-1.61-2.26-2.67.3-.45,9.57-3.4,11.08-3.89,1.94-.63,14.01-3.79,14.42-4.49,0,0,.01-.02.02-.03.82-1.43-.54-3.17-2.16-2.85-6.05,1.2-22.12,7.01-23.6,7-1.32,0-1.27-1.64-1.15-2.72,0,0,22.82-7.74,22.33-7.45,0,0,1.64-1,1.41-2.67-.81-1.28-1.65-1.11-2.95-.94l-21.22,7.11c-1.26-1.13-2.09-4.06-.48-5.19Z"/><path class="cls-1" d="M243.17,209.39c-2.98-1.07-4-6.16-5.28-6.54-1.7-.51-3.83-.55-5.08,2.07-5.9,17.55,27.37,23.38,26.4,5.1-.29-5.55-9.49-16.03-14.28-9.54-3.39,4.59,4.57,7.04,4.55,8.54-2.2,1.64-5.11.8-6.3.37Z"/><path class="cls-1" d="M298.99,210.91c.7-.45,14.51-3.33,16.24-3.51,2.02-.22,3.93.43,5.35.29,2.67-.26,5.74-1.67,8.59-1.46l-.69-3.17c-10.94-.73-21.62,2.73-32.22,4.85-1.11,5.84,1.48,6.82,6.09,5.9,4.8-.96,11.62-2.08,16.29-3.42.87-.25.37-.41.08-1.96l-10.16,1.92c-8.81,2.11-10.15.93-9.58.56Z"/><path class="cls-1" d="M326.72,200.23c.57-.41,1.58-1.63,1.44-2.38-.58-.79-10.58,1.08-12.36,1.33-2.7.38-21.29,3.85-22,5.02l.64,1.62,1.4,1.42c4.07-1.45,8.24-2.56,12.47-3.48,3.14-.68,17.06-2.55,18.42-3.54Z"/><path class="cls-1" d="M427.14,214.87c-.52,2.97,3.57,5.34,2.1,8.37-3.45-3.4-7.53-9.85-12.09-11.66-1.16-.46-4.78-.83-4.94-1.01-.47-.53.56-2.22-.77-1.99-3.76,13.19-4.45,45.54,9.51,52.98,3.6,1.92,7.33-2.3,9.23-5.26,7.75-12.1,6.95-30.85-3.03-41.44Z"/><path class="cls-1" d="M439.7,205.81l-10.81.69c-.96,1.13,4.06,6.56,4.91,8,8.57,14.58,7.9,30.83-1.12,45.02-.78,1.22-7.29,6.65-2.76,7.05,1.51.13,9.65-1.36,11.23-2.07,6.93-3.12,10.19-20.71,10.14-27.64-.05-6.14-4.44-29.69-11.6-31.05Z"/><path class="cls-1" d="M398.66,120.43c1.26,4.08,2.42,19.11,3.32,20.42,1.23,1.77,4.12.45,4.54-1.78.93-4.93-2.02-28.27-5.58-31.38-1.87-1.63-4.1-.89-6.33-.49-1.32.23-2.02,1.69-1.37,2.86,1.9,3.41,4.17,6.32,5.42,10.38Z"/><path class="cls-1" d="M300.06,237.19c-2.06-3.16-10.08,5.71-11.43,7.48-11.57,15.19-7.28,38.87,6.13,51.59,3.05,2.9,8.53,7.24,12.78,6.44,6.91-1.3,17.68-10.12,22.05-15.67,7.14-9.06,10.12-15.51,10.9-19.73,1.29-7-.07-9.26-1.71-10.53-2.37-1.72-6.49,12.88-13.59,14.01,2.99-3.1,7.26-8.75,8.39-11.59,1.76-4.42,3.57-11.78-.15-12-2.47-.15-4.07,5.41-7.46,9.88-3.27,4.32-7.48,6.32-7.48,6.32,1.97-6.24,8.52-15.16,6.33-18.5-1-1.01-4.11-6.56-12.58,2.44-1.62,1.72-13.3,12.27-15.35,10.13-1.58-5.04,5.84-16.17,3.17-20.28Z"/><path class="cls-1" d="M134.64,398.66c2.33,1.55,8.29,5.4,12.99,7.96l-4.08-26.52,36-12.78c-38.2-10.8-70.98-45.51-75.8-82.42-3.04-23.29.58-46.38,12.44-63.69,3.41-4.98,7.11-11.23,11.58-14.72,0,0-4.95-6.11-5.13-8.8-3.34,1.42-12.25,5.34-12.43,5.3l-1.6,3.19c-7.28,6.18-14.32,15.45-17.33,20.23-38.7,61.34-1.98,141.97,43.37,172.25Z"/><path class="cls-1" d="M174.08,191.34c4.46.44,3.14-5.9-.54-5.23-2.85.52-2.42,4.94.54,5.23Z"/><path class="cls-1" d="M101.53,199.97c29.37-2.28,18.36-11.93,24.49-15.99,3.86-2.56,4.59,3.6,12.4,2.67,10.29-1.94,14.62-5.75,17.08-11.05,1.38-2.85,1.53-6.89,4.48-9.69,4.83-4.59,13.71-1.94,17.16-1.45,6.6-.39,8.77-.53,14.41-2.07,10.6-2.89,10.32-6.14,22.51-8.3,0,0-1.2-8.17-10.26-21.96-9.53-14.51-16.25-23.11-32.2-18.21-19.09,5.86-36.26,18.89-53,37.7-7.95,8.93-14.43,16.3-22.69,33.4-2.77,5.74-6.41,15.88,5.61,14.94ZM188.7,128.65c8.49-3.44,14.81,13.65,3.89,14.32-7.25.45-10.46-11.66-3.89-14.32Z"/></svg>