<?xml version="1.0" encoding="UTF-8"?><svg id="Layer_1" xmlns="http://www.w3.org/2000/svg" viewBox="0 0 600 600"><path d="M298.65,278.77c.14-11.76,3.72-23.81-1.33-33.13-1.7-1.77-5.11-3.35-8.55-2.98-10.31,1.11-18.87.16-29.26,5-.29,14.8-.61,31.46-.9,46.26,12.07,3.33,25.95,2.91,38.19-5.28,1.76-2.03,1.8-5.95,1.85-9.87h0ZM283.11,277.71c-.06,3.83-5.31,7.91-8.68,2.39-5.09-5.35,1.97-15.28.37-22.72,3.45-.3,8.64-2.68,10.28,2.93,1.64,5.64-.16,11.53-1.98,17.39h0Z"/><path d="M308.89,292.11c10.42-2.39,20.78,3.34,29.49-5.19,5.23-8.54-5.13-12.11-10.33-9.77,3.51-8.39.12-18.36,1.89-26.67,1.72-.16,6.88,1.44,8.62-2.85,1.82-22.96-20.58-8.12-30.89-7.01-3.44.37-1.78,6.12-1.82,10.08,1.68,3.8,6.87,1.35,10.31,1.04-3.52,8.3-.14,16.05-1.93,24.18-1.73.1-5.19.3-6.92.4-3.5,4.15-5.3,10.14,1.57,15.8h0Z"/><path d="M360.9,288.12c6.93-.27,17.34,3.68,20.79-5.18,3.45-6.74,3.42-17.72-.05-24.05-5.19-10.47-17.26,1.28-13.8,13.92-12.1-1.42-8.62-16.5-6.89-27.28,6.89-.65,24.11,2.13,18.91-14.86-12.03-.82-30.9-4.97-32.67,11.97-3.49,12.83-5.27,27.52-.13,39.74,3.45,4.04,8.65,3.82,13.84,5.74h0Z"/><path d="M405.95,284.13c8.66-.36,15.59-.64,24.21-5.64-1.81-9.17-.17-18.55-3.68-25.24-5.27-11.07-17.25,1.33-13.71,14.69-12.11-1.51-7.02-17.6-5.36-29.03,6.88-.66,22.42,2.48,17.1-15.49-10.34-3.38-22.35-1.96-32.63,5.91-3.37,20.22-6.74,51.26,14.07,54.79h0Z"/><path d="M440.58,280.35c10.39-.46,19.02-3.24,29.41-3.73,3.43-2.6,3.32-9.91,1.56-12.24-5.28-6.94-13.8,3.23-20.8-3.49-.03-2.38-.06-4.75-.08-7.13,5.09-7.55,10.48,8.84,15.5-3.57,4.93-17.42-8.75-8.91-13.97-13.21l-.06-4.76c5.16-.51,12.08,1.22,17.21-1.71,3.37-5.21,4.98-12.72-1.99-19.21-10.24,6.04-18.85,4.67-29.15,5.89-3.25,19.07-1.32,39.94-1.14,58.64.02,2.34,1.75,2.26,3.51,4.52h0Z"/><path d="M514.41,236.27c1.72-.15,3.4-2.85,3.4-2.85-.15-7.65,3.04-20.79-2.21-25.3-10.43-6.33-22.31,2.65-32.65,1.42-3.14,19.98-1.09,41.87-.79,61.48,1.84,7.28,10.5,6.89,13.84-.72,1.65-5.08-1.93-12.33-.29-17.42,1.68-2.62,5.18-.37,8.63-.62,3.5,2.27,1.91,9.94,5.5,17.31.09,5.05,8.75,4.65,12.16,1.93,4.99-10.55,4.57-31.14-7.59-35.22h0ZM503.94,229.65c.04,2.51-1.59,7.69-6.8,5.65-1.76-2.33-1.89-9.8-.21-12.47,3.35-5.37,6.92,1.79,7.01,6.82h0Z"/><path d="M326.32,309.04c-3.73.1-9.33.26-11.2,4.6-1.88,12.89,1.86,27.94-7.55,38.45-7.49-10.74.05-25.52-5.53-38.16.01-4.22-11.19-3.92-11.2-1.84-9.46,18.72-2.08,41.55,9.16,56.64,5.66-1.84,13.2.65,18.86-3.39,13.17-10.39,13.12-32.33,11.21-52.03,0-2.19-1.87-2.14-3.74-4.27h0Z"/><path d="M369.25,305.57c-9.3,4.82-20.53.62-29.85,3.11-3.73,2.31-1.85,6.68-1.83,11.1,1.88,4.4,5.64,6.6,11.24,4.33-3.71,8.95.09,17.92-1.75,26.83-1.88-.05-5.64-.14-7.52-.19-3.75,4.31-5.61,10.85,1.94,17.8,9.39-6.3,35.9,10.93,31.93-12.35-1.92-4.66-7.54-2.51-11.3-2.62,3.69-9.04-.14-20.48,1.67-29.6,1.87-.02,7.51,2.24,9.34-2.38-.04-4.61-1.96-11.49-3.87-16.03h0Z"/><path d="M406.57,304.45c-9.3,2.65-16.85-4.2-26.11,3.11,2.07,20.94-3.36,41.81,4.34,60.67,13.11-6.54,26.41,3.56,37.58-5.67,3.5-17.02,5.07-36.63-2.68-53.64-.07-4.87-7.54-4.65-13.14-4.48h0ZM407.14,347.63c.03,2.4-1.82,4.75-1.82,4.75-16.89,1.93-5.87-19.17-7.88-31.04,3.74-.04,7.45-2.47,9.35-.1,5.71,7.18,2.13,19.21.35,26.39h0Z"/><path d="M466.18,297.52c-11.09,5.46-20.47,3.24-31.66,3.61-3.41,19.85-1.17,42.07-.85,61.84.04,2.47,1.97,5.02,3.85,5.1,11.26-2.05,20.72.85,31.97-1.25,3.71-2.43,3.55-10.17,1.61-12.8-5.8-7.81-14.99,2.16-22.65-5.58-.05-2.51-.09-5.02-.14-7.54,5.48-7.52,11.46,10.3,16.83-2.37,5.25-17.97-9.57-10.21-15.29-15.23l-.09-5.03c5.61-.08,13.14,2.38,18.7-.25,3.63-5.21,5.33-13-2.29-20.48h0Z"/><path d="M498.51,293.68c-7.52-2.34-14.86,3.18-16.6,8.46-8.95,18.33-1.06,36.45-2.54,54.59,11.59,13.44,38.1,19.91,43.1-4.24,1.52-13.55,1.08-29.85-1.15-43.4-2.23-13.5-13.48-15.77-22.8-15.42h0ZM505.36,344.13c-1.81,2.64-7.25,10.48-9.32,2.51-3.94-7.95-4.19-18.47-2.56-29.02,1.68-7.95,11.02-8.15,13.09-.18.2,8.01-1.41,18.69-1.21,26.69h0Z"/><path d="M244.72,251.73c-10.11,2.1-17.11,3.8-25.7,5.89-1.49.36-6.84,1.34-5.35,4.22,1.37,2.65-2.65,1.95-4.27,4.83-2.42,4.33-2.45,9.84-1.5,14.59.22,1.1,2.35,7.23,2.06,7.6-.78.18-.54-.21-.79-.58-2.76-3.91-3.94-11.42-3.46-16.11.27-2.7,1.17-4.83,2.36-7-.55-.12-1-.27-1.32.05-3.47,3.36-4.2,10.26-3.45,14.81.41,2.49,1.64,4.81,2.07,7.29-4.91-6.55-6.26-18.25,1.54-23.93-1.24-1.53-4.26-1.61-5.95-1.26-7.49,1.58-13.11,3.09-20.7,4.9-7.59,1.81-12.19,2.81-19.33,4.63-6.11,1.55-4.94,3.26-8.02,10.91-.19.47-.02.74-.47,1.05-1.45-1.7-3.77-2.1-5.48-3.11-2.67-1.58-2.81-3.98-6.51-3.03-4.43,1.13-9.24,4.02-13.12,6.21-3.94,2.22-9.45,1-13.64.03l-1.92-1.62c4.03-.43,8.11,1.45,12.05.24,4.67-1.44,7.9-6.34,11.67-8.28,2.24-1.16,9.89-1.96,11.26-3.17.28-.25.4-.34.31-.76-3.73-1.36-5.91-5.3-3.38-8.65.49-.65,1.47-1.24,2.25-1.66,1.93-1.05,3.9-1.53,4.88-1.57.46-.67-4.15-6.02-4.82-6.84-1.53-1.88-3-3.72-4.84-5.26-.32-.27-2.62-1.98-2.77-2.05-1.17-.51-6.12-.2-7.6.39-11.47,4.63-16.29.33-19.79,8.18-2.46,1.37-10.15,6.07-12.28,2.73-2.93,1.26-.96,5.08.56,7.62,0,0-.96-4.1-.64-5.05.32-.95.85-.42.85-.42-.04,1,.22,2.47.91,3.23,1.42,1.56,6.22.6,1.57,4.28,3.2,5.12,1.67,12.49,6.38,16.95-8.81,19.5,1.47,40.34,21.14,47.29,13.25,4.68,26.83.54,37.06-8.53,1.06-.94,6.92-6.95,6.46-7.98-1.83-1.9-4.94-2.57-5.99-5.21,2.2,1.92,7.62,6.94,8.57,1.43-2.57-1.55-4.75-3.3-6.74-5.56-.78-.89-4.23-6.12-4.74-5.99-1.21,1.33-1.77,2.51-1.08,4.3-1.59-.97-2.14.69-3.23,1.53-4.81,3.7-9.44,6.6-15.65,7.37-1.11.14-2.62-.22-3.61.07-.6.18-1.59,1.64-2.51,2.1-.9.44-1.91.48-2.82.87-1.34.27,1.48-2.68,1.11-3.03l-5.83,2.45c-.23-.18,2.86-3.74,2.45-4.6-.55-.55-4.84,3.36-6.14,2.76-.59-.57,2.39-3.76,2.75-4.45-.47-.65-.43-.3-.81-.21-1.58.38-3.38,2.05-4.87,2.81-1.84-1.19,3-4.87,2.3-5.52-1.87-.17-2.99,1.75-4.75,2.15-1.23-.26.88-4.41,1.37-5.07-.87-1.54-3.9,1.81-4.29,1.38-.17-1.4,2.07-3.28,3.2-3.7,4.47-1.67,12.22,3.44,15.37,6.47l-2.3-5.83c3.77.77,7.07,5.73,10.85,5.49,2.57-.16,10.91-3.37,12.63-5.19,1.06-1.12.57-1.99,1-3.3.67-2.04,2.75-3.89,4.84-4.36.29-3.95-.31-7.14,1.41-10.87.97-2.1,5.3-6.42,7.55-6.87,3.85-.78,3.77,3.75,3.16,6.38,2.01-1.82,5.03-5.42,7.99-4.49,2.07.66,2.11,3.13,2.88,3.74.77.61,1.89-.87,2.83.3.74.92,1.38,1.78,1.05,3.64-.05.3,1.71.76,2.38,1.92,2.04,3.52-1.33,11.86-3.95,14.82,7.69-.75,13.44-1.3,22.16-2.15,9.26-.9,19.25-1.43,27.79-2.7,1.68-.25,5.88-.28,6.71-3.42.38-1.45-.39-7.23-.82-9.69-2.34-13.24-2.03-15.53-.06-19.18,1.33-2.57,2.44-1.85,3.03-3.68.38-1.19-2.03-7.94-3.47-8ZM115.73,271.69c1.78-2.71,16.51-5.64,18.11-4.29-.3,1.1-2.32.8-3.22.92-5.06.69-10.09,1.6-14.89,3.37ZM127.86,272c-3.09.36-6.91,1.84-6.91,1.84,3.75-2.91,9.19-3.47,13.81-3.68,0,0-2,1.27-6.91,1.84ZM135.37,264.33c.07.43-.54.44-.85.52-3.17.78-6.5.18-9.73.4-3.24.22-6.45,1.18-9.67,1.53.7-.74,2.04-1.15,3-1.44,5.36-1.64,11.78-2.15,17.25-1ZM117.49,251.81c5.77-1.05,7.85,8.91.85,8.21-4.65-.46-5.32-7.4-.85-8.21ZM212.88,284.58c-.77-2.41-1.98-6.28-.92-8.59.99,4.48,1.76,9.05,3.84,13.19-1.77-.45-2.42-3.07-2.91-4.6ZM238.2,289.64c-1.92,1.99-9.89,3.27-12.36,2.55-1.7-.5-3.41-6.07-3.88-7.78-1.2-4.35-1.91-9.9-1.55-14.4.1-1.25,1.27-7.71,2.35-8.09.61-.21,4-.62,4.85-.68,2.48-.17,6.6-.37,8.63,1.07,5.8,4.09,6.79,22.32,1.97,27.33Z"/><path d="M183.73,378.19c-1.89,1.21-3.82-.35-2.99-2.98,1.29-4.04,10.52-11.49,13.73-15.12,6.72-7.63,15.17-20.85,8.85-30.4-1.25-1.89-2.34-3.24-3.96-5.46-1.95-2.67-4.87-6.54-6.81-9.25-1.79-2.5-5.04-1.42-5.93-1.44-1.13-.03-3.42.72-4.89.2l5.08-1.51c6.72-1.95,8.36,2.26,12.44,1.87,1.35-.49,1.55-4.69,1.65-5.72.23-2.34.7-5.05-.51-4.96,0,0-10.24.96-12.38,1.42-.86.18-8.61,2.72-9.05,3.23-.47.55-.23,1.47-.53,2.23-1.13,2.82-4.08,6.53-6.01,8.82-6.47,7.67-12.62,12.32-21.85,15.28-5.09,1.64-14.19,3.05-22.7,1.52-.15.21,1.55,2.39.71,3.9-.24.42-1.14,1.74-2.03,2.37-9.59,6.79-14.64,13.58-18.47,25.86-.85,2.71-.09,5.56,1.68,6.95.53.42,5.66,5.45,4.74,6.86-.19.29-1.32-.54-7-3.57-7.63-4.07-19.5,5.4-14.91,13.9.75,1.38,9.96,2.39,17.84,1.81,6.15-.45,13.35-.96,21.99-4.5,1.55-.63,5.04-.35,7.44-1.78.75-.48.27-1.17,0-1.84-.62-1.51-1.91-4.14-2.66-5.64-.34-.68-1.41-.25-.63-1.96.53-1.16,4.96-3.58,6.35-4.69,2.77-2.21,6.52-6.18,8.91-8.89,1.34-1.51,2.57-3.24,3.68-4.92,1.14.05-1.87,7.11-2.3,7.67,1.32.95,12.56-4.03,14.74-4.75,1.39-.45,2.84-.85,4.29-1.08l-6.43,3.88c1.52,3.7-1.33,8.35-3.03,11.67-1.09,2.13-4.72,5.89-1.5,7.84,3.41,2.07,21.75,4.24,26.56,4.33,8.17.15,11.97-.27,20.17-2.92,1.86-.6,2.76-6.62-1.02-10.17-7.54-7.09-17.8-1.53-23.23,1.94Z"/><path d="M153.33,255.42c.68,1.61,3.15,2.98,4.09,4.5.84,1.35.6,2.85,1.58,3.94.63.32,3.01.36,3.8.11,9.9-3.1,18.92-4.52,22.28-5.05,1.91-.3,18.05-4.02,18.05-4.02.18-.34-.85-4.7-.85-4.7-4.88.45-10.03,1.5-14.89,1.84-1.21.09-5.54.58-6.15-.29-1.26-1.83-3.86-15.95-4.45-19.51l.77-1.36,4.52,19.87c.71.73,6.13.24,7.45.07,12.32-1.65,19.1-4.11,29.73-7.06,4.89-1.36,6.83-.86,6.3-6.25-.45-4.54-1.59-10.16-2.51-14.68-.73-3.63-.49-7.26-4.97-7.31-6.43-.07-17.61-.31-20.66.99-15.37,6.56-31.49,13.45-45.69,19.21-1.88.76-2.06,1.1-1.9,3.24.15,2.12,2.76,14.72,3.49,16.46ZM211.13,218.59c.74,0,2.57-.03,3.28-.03.67,0,4.66.42,4.93.62.35.25.52.78.66,1.18.92,2.66,1.85,9.52,2.19,12.54.44,3.92,1,5.85-3.5,6.55-4.16.65-8.94.56-13.15.58l-1.42-4.87c.6.43.67.98,1.43,1.48,2.53,1.67,5.14.58,6.85-1.65,3.98-5.19,1.33-14.44-6.13-13.65-.18.83.25.52.61.76,1.03.68,2.22,1.25,3.09,2.14,2.33,2.4,3.21,7.42.3,9.68.32-1.71.85-4.13-.46-5.52-2.18,3.22-1.92.77-3.09-.6-.93-1.09-2.8-1.68-4.12-.94l-1.19-7.33c3.84-.7,6.09-.94,9.73-.96ZM197.84,218.59c1.57,2.14,2.64,15.81,5.21,23.34h15.2c-.12.59-.62.53-1.07.6-3.47.56-9.72,1.01-13.2.95-3.24-.06-3.14-3.81-3.7-6.46-1.03-4.88-2.52-12.36-2.77-17.21-.03-.51-.29-.81.33-1.22ZM193.06,223.96c.08-.71.39-.36.79-.76l3.22,16.26c-.61.09-.92-.36-1.15-.85-.73-1.54-1.76-7.49-2.14-9.53-.23-1.26-.85-4.03-.73-5.13ZM190.48,224.42c.8.92,1.28,4.96,1.46,5.91.58,3.21,1.44,6.41,2.06,9.62l-.9.74c-.45-.34-2.54-9.66-2.72-10.94-.22-1.56-.78-4.05.12-5.33ZM187.71,225.65l2.61,15.96c-.36-.02-.65.16-.94-.19-.73-.89-2.55-10.86-2.7-12.58-.13-1.41-.23-2.31,1.04-3.18ZM183.33,228.34c.08-.63.69-1.32,1.16-.85.12.12.28,2.87.39,3.45.65,3.37,2.08,7.94,2.3,11.22.11,1.65-.59,1.55-1.17.24-.89-2.01-2.94-12.07-2.67-14.06ZM181.42,229.03l2.75,14.73c-.67.02-1.26-.68-1.44-1.15-.78-2.06-1.99-7.85-2.19-10.09-.09-.99-.49-3.53.88-3.49ZM155.23,245.27l9.18-3.34c.81-.03,4.97.92,4.97.92l-.59,7.37s-9.14,2.62-11.54,3.31c-.71.31-1.3-.71-.99-1.17.13-.2,4.21-1.49,4.87-1.71.85-.28,6.15-1.67,6.34-1.97,0,0,0,0,0-.01.36-.63-.24-1.39-.95-1.25-2.66.53-9.72,3.08-10.37,3.08-.58,0-.56-.72-.51-1.2,0,0,10.03-3.4,9.81-3.27,0,0,.72-.44.62-1.17-.36-.56-.73-.49-1.3-.41l-9.33,3.12c-.56-.49-.92-1.79-.21-2.28Z"/><path d="M148.91,264.98c-1.31-.47-1.76-2.71-2.32-2.88-.75-.22-1.68-.24-2.23.91-2.59,7.71,12.03,10.28,11.6,2.24-.13-2.44-4.17-7.04-6.28-4.19-1.49,2.02,2.01,3.1,2,3.75-.97.72-2.25.35-2.77.16Z"/><path d="M173.44,265.65c.31-.2,6.38-1.46,7.14-1.54.89-.09,1.73.19,2.35.13,1.17-.12,2.52-.73,3.78-.64l-.3-1.4c-4.81-.32-9.5,1.2-14.16,2.13-.49,2.57.65,3,2.68,2.59,2.11-.42,5.11-.92,7.16-1.5.38-.11.16-.18.04-.86l-4.47.84c-3.87.93-4.46.41-4.21.25Z"/><path d="M185.63,260.96c.25-.18.7-.72.63-1.04-.25-.35-4.65.48-5.43.59-1.18.17-9.36,1.69-9.67,2.21l.28.71.62.62c1.79-.64,3.62-1.13,5.48-1.53,1.38-.3,7.5-1.12,8.1-1.55Z"/><path d="M229.76,267.39c-.23,1.3,1.57,2.34.92,3.68-1.52-1.5-3.31-4.33-5.31-5.12-.51-.2-2.1-.36-2.17-.45-.21-.23.25-.98-.34-.87-1.65,5.8-1.96,20.01,4.18,23.28,1.58.84,3.22-1.01,4.06-2.31,3.4-5.32,3.06-13.56-1.33-18.21Z"/><path d="M235.28,263.41l-4.75.3c-.42.5,1.78,2.88,2.16,3.52,3.77,6.41,3.47,13.55-.49,19.79-.34.54-3.2,2.92-1.21,3.1.66.06,4.24-.6,4.94-.91,3.04-1.37,4.48-9.1,4.46-12.15-.02-2.7-1.95-13.05-5.1-13.65Z"/><path d="M217.24,225.89c.56,1.79,1.06,8.4,1.46,8.97.54.78,1.81.2,1.99-.78.41-2.17-.89-12.43-2.45-13.79-.82-.72-1.8-.39-2.78-.22-.58.1-.89.74-.6,1.26.83,1.5,1.83,2.78,2.38,4.56Z"/><path d="M173.91,277.2c-.91-1.39-4.43,2.51-5.02,3.29-5.09,6.67-3.2,17.08,2.7,22.67,1.34,1.27,3.75,3.18,5.62,2.83,3.04-.57,7.77-4.45,9.69-6.89,3.14-3.98,4.45-6.82,4.79-8.67.57-3.07-.03-4.07-.75-4.63-1.04-.76-2.85,5.66-5.97,6.16,1.31-1.36,3.19-3.84,3.69-5.09.77-1.94,1.57-5.18-.07-5.27-1.09-.07-1.79,2.38-3.28,4.34-1.44,1.9-3.29,2.78-3.29,2.78.87-2.74,3.74-6.66,2.78-8.13-.44-.44-1.8-2.88-5.53,1.07-.71.76-5.85,5.39-6.75,4.45-.69-2.22,2.57-7.11,1.39-8.91Z"/><path d="M101.21,348.17c1.02.68,3.64,2.37,5.71,3.5l-1.79-11.66,15.82-5.62c-16.79-4.75-31.19-20-33.31-36.22-1.34-10.23.26-20.39,5.47-27.99,1.5-2.19,3.13-4.94,5.09-6.47,0,0-2.18-2.68-2.25-3.87-1.47.63-5.39,2.35-5.46,2.33l-.7,1.4c-3.2,2.72-6.29,6.79-7.62,8.89-17.01,26.96-.87,62.39,19.06,75.7Z"/><path d="M118.54,257.05c1.96.19,1.38-2.59-.24-2.3-1.25.23-1.06,2.17.24,2.3Z"/><path d="M86.66,260.85c12.91-1,8.07-5.24,10.76-7.03,1.7-1.12,2.02,1.58,5.45,1.17,4.52-.85,6.43-2.53,7.51-4.86.61-1.25.67-3.03,1.97-4.26,2.12-2.02,6.03-.85,7.54-.64,2.9-.17,3.85-.23,6.33-.91,4.66-1.27,4.53-2.7,9.89-3.65,0,0-.53-3.59-4.51-9.65-4.19-6.38-7.14-10.15-14.15-8-8.39,2.57-15.93,8.3-23.29,16.57-3.5,3.93-6.34,7.16-9.97,14.68-1.22,2.52-2.82,6.98,2.46,6.57ZM124.97,229.5c3.73-1.51,6.51,6,1.71,6.29-3.18.2-4.6-5.13-1.71-6.29Z"/></svg>