<?xml version="1.0" encoding="UTF-8"?><svg id="Layer_1" xmlns="http://www.w3.org/2000/svg" viewBox="0 0 600 600"><path d="M164.36,242.12c1.61-17.27,8.33-34.57,2.03-48.87-2.28-2.81-7.11-5.55-12.21-5.41-15.3.39-27.77-2.04-43.61,3.83-2.2,21.73-4.68,46.18-6.89,67.91,17.35,6.35,37.8,7.4,56.78-3.17,2.83-2.77,3.36-8.53,3.9-14.29h0ZM141.64,238.7c-.54,5.63-8.75,10.99-13.04,2.47-6.84-8.48,4.74-22.22,3.28-33.35,5.1-.03,13.03-2.9,14.76,5.55,1.74,8.48-1.63,16.93-5,25.33h0Z"/><path d="M177.82,262.97c15.6-2.26,30.15,7.41,43.98-4.09,8.72-11.93-6.09-18.42-14.01-15.6,6.16-11.91,2.38-26.97,5.99-38.98,2.55-.02,9.94,2.94,13.02-3.16,5.44-33.54-29.28-14.41-44.57-14.02-5.1.13-3.35,8.78-3.89,14.59,2.02,5.8,9.94,2.81,15.04,2.77-6.17,11.78-2.13,23.58-5.75,35.31-2.55-.06-7.66-.18-10.22-.24-5.65,5.68-9.01,14.28.41,23.42h0Z"/><path d="M254.77,263.35c10.22.44,25.05,7.5,31.19-5.11,5.88-9.49,7.15-25.64,2.82-35.36-6.37-16.02-25.53-.19-21.97,18.8-17.62-3.54-10.69-25.29-6.85-40.94,10.2-.12,35.2,6.03,29.59-19.58-17.58-2.65-44.84-11.02-49.48,13.67-6.67,18.45-11.06,39.82-4.97,58.41,4.59,6.35,12.26,6.66,19.66,10.1h0Z"/><path d="M321.48,262.9c12.78.52,23,.93,36.28-5.38-1.56-13.71,1.99-27.29-2.37-37.54-6.41-16.92-25.52-.12-21.92,19.95-17.62-3.67-8.2-26.72-4.39-43.32,10.2-.15,32.66,6.34,27-20.71-14.79-6.22-32.63-5.57-48.68,4.76-7.39,29.33-16.07,74.55,14.09,82.24h0Z"/><path d="M372.84,261.51c15.33.58,28.36-2.47,43.69-1.94,5.35-3.41,6.08-14.17,3.76-17.81-6.93-10.84-20.68,3.09-30.16-7.64.24-3.5.49-6.99.73-10.49,8.39-10.49,14.34,14.26,23.22-3.39,9.35-25.02-11.79-14.15-18.95-21.11l.49-7c7.65-.13,17.61,3.24,25.5-.44,5.58-7.26,8.86-18.1-.61-28.48-15.77,7.65-28.27,4.59-43.56,5.15-7.08,27.64-6.75,58.56-8.73,86.07-.25,3.44,2.31,3.53,4.62,7.07h0Z"/><path d="M486.7,205.59c2.55-.02,5.34-3.79,5.34-3.79.7-11.26,6.98-30.2-.2-37.45-14.58-10.56-33.13,1.21-48.17-1.84-7.02,29-6.64,61.43-8.56,90.29,1.83,10.92,14.61,11.4,20.44.6,3.03-7.27-1.36-18.36,1.67-25.65,2.79-3.64,7.66.08,12.76.13,4.87,3.76,1.61,14.85,6.01,26.12-.47,7.44,12.3,7.88,17.65,4.29,8.6-14.91,10.47-45.23-6.93-52.7h0ZM472.1,194.59c-.24,3.7-3.26,11.11-10.68,7.49-2.31-3.64-1.6-14.63,1.19-18.35,5.57-7.49,9.96,3.47,9.49,10.86h0Z"/><path d="M201.41,289.96c-5.5-.3-13.75-.75-17.03,5.42-4.32,18.73-.63,41.3-15.72,55.62-9.72-16.69,3.14-37.52-3.54-56.77.53-6.21-15.98-7.1-16.24-4.05-16.16,26.39-8.06,60.84,6.65,84.37,8.55-2.03,19.33,2.54,28.13-2.71,20.61-13.69,23.18-45.95,22.74-75.14.26-3.22-2.49-3.38-4.99-6.73h0Z"/><path d="M264.94,290.01c-14.26,5.97-30.26-1.56-44.26.99-5.76,2.94-3.52,9.6-4.03,16.09,2.24,6.7,7.49,10.38,16.01,7.71-6.52,12.71-2.03,26.35-5.8,39.24-2.76-.29-8.27-.88-11.03-1.18-6.03,5.89-9.56,15.28.72,26.4,14.56-8.13,51.46,20.39,48.43-14.32-2.26-7.08-10.78-4.6-16.3-5.21,6.52-12.85,2.26-30.13,6.02-43.32,2.75.2,10.76,4.2,14.02-2.38.5-6.79-1.51-17.12-3.76-24.04h0Z"/><path d="M319.95,292.85c-14,2.78-24.26-8.2-38.76,1.44.53,31.03-9.97,61.06-.91,89.72,20.06-8.04,38.4,8.42,55.93-3.82,7.19-24.6,11.85-53.25,2.52-79.18.48-7.17-10.52-7.74-18.77-8.16h0ZM315.58,356.41c-.24,3.53-3.24,6.77-3.24,6.77-25.07.8-6.32-28.89-7.86-46.58,5.51.39,11.26-2.74,13.77.98,7.54,11.25.82,28.5-2.67,38.84h0Z"/><path d="M408.43,289.84c-16.96,6.7-30.48,2.3-46.98,1.49-7.4,28.77-6.78,61.71-8.68,90.81-.24,3.64,2.29,7.62,5.05,7.96,16.79-1.66,30.36,3.74,47.15,2,5.75-3.13,6.44-14.53,3.91-18.62-7.58-12.19-22.3,1.37-32.63-10.93.23-3.7.47-7.4.7-11.1,8.97-10.4,15.61,16.52,25.04-1.46,9.88-25.79-12.85-16.16-20.64-24.23l.47-7.41c8.26.56,19.04,5.07,27.53,1.88,5.96-7.22,9.4-18.47-.91-30.39h0Z"/><path d="M456.41,288.09c-10.77-4.35-22.22,2.89-25.43,10.44-15.36,25.88-5.95,53.46-10.3,79.96,15.42,21.15,53.62,33.86,63.88-1.04,3.86-19.73,5.18-43.76,3.52-63.94-1.65-20.11-17.93-24.81-31.67-25.41h0ZM460.41,363.07c-2.98,3.66-11.93,14.53-14.01,2.57-4.84-12.17-3.93-27.66-.27-42.97,3.43-11.48,17.19-10.66,19.27,1.31-.67,11.81-4.32,27.31-4.99,39.09h0Z"/><path d="M112.31,395.48l-1.12,13.17-2.89-.25.91-10.67-5.4-.46-.91,10.67-2.89-.25,1.12-13.17,11.18.95Z"/><path d="M121.75,396.28l4.69.4c1.51.13,2.65.46,3.56,1.26.9.79,1.46,1.99,1.33,3.49-.13,1.49-.88,2.58-1.9,3.21-1.03.63-2.21.78-3.72.65l-1.8-.15-.39,4.56-2.89-.25,1.12-13.17ZM125.81,402.84c.82.07,1.37.03,1.81-.23.44-.25.76-.78.82-1.39.05-.64-.17-1.21-.57-1.53-.39-.33-.93-.46-1.75-.53l-1.69-.15-.31,3.69,1.69.15Z"/><path d="M143.38,398.13l2.95.25,4.15,13.62-3.09-.26-.84-2.86-5.29-.45-1.31,2.67-2.96-.25,6.4-12.72ZM145.88,406.53l-.41-1.46c-.31-1.12-.67-2.47-.91-3.48h-.04c-.45,1-1.01,2.22-1.54,3.29l-.67,1.35,3.57.3Z"/><path d="M159.91,399.54l4.66.4c1.36.12,2.4.41,3.21,1.08s1.31,1.63,1.2,2.87c-.1,1.2-.81,2.15-1.92,2.55v.04c1.38.59,2.04,1.79,1.92,3.22-.11,1.31-.78,2.24-1.74,2.82-.97.58-2.13.73-3.57.61l-4.87-.42,1.12-13.17ZM165.34,410.45c.42-.22.71-.62.76-1.22.09-1.02-.64-1.67-1.74-1.76l-2.22-.19-.28,3.24,1.82.16c.76.07,1.23,0,1.65-.23ZM164.2,405.37c1.02.09,1.77-.4,1.85-1.33.05-.56-.16-.97-.48-1.23-.33-.27-.72-.39-1.46-.45l-1.53-.13-.25,2.98,1.87.16Z"/><path d="M178.6,401.14l2.87.24-.41,4.78c-.11,1.25-.23,2.51-.36,3.76h.04c.91-1.05,1.81-2.06,2.76-3.11l4.37-4.88,2.8.24-1.12,13.17-2.87-.25.42-4.95c.11-1.29.24-2.58.37-3.87h-.04c-.94,1.09-1.87,2.15-2.84,3.22l-4.51,5.04-2.6-.22,1.12-13.17Z"/><path d="M200.13,402.98l2.78.24,3.44,5.9,4.38-5.23,2.75.23-1.12,13.17-2.89-.25.45-5.27c.09-1.09.22-2.33.32-3.29h-.04c-.7.87-1.43,1.78-2.17,2.65l-2.14,2.55-1.68-2.87c-.58-.98-1.15-2-1.69-2.98h-.04c-.06.96-.15,2.2-.24,3.29l-.45,5.27-2.78-.24,1.12-13.17Z"/><path d="M234.37,405.9l8.35.71-.22,2.53-5.46-.47-.91,10.64-2.89-.25,1.12-13.17Z"/><path d="M249.73,413.84c.33-3.84,3.54-6.53,7.45-6.2,3.91.33,6.62,3.53,6.3,7.37-.33,3.84-3.54,6.53-7.45,6.2-3.91-.33-6.62-3.53-6.3-7.37ZM260.59,414.77c.2-2.35-1.35-4.35-3.63-4.54-2.27-.19-4.14,1.51-4.34,3.86-.2,2.35,1.35,4.35,3.62,4.54,2.27.19,4.14-1.52,4.34-3.86Z"/><path d="M271.63,419.54l2.53.22-2.1,5.32-1.91-.16,1.48-5.37Z"/><path d="M300.01,411.5l2.95.25,4.15,13.62-3.09-.26-.84-2.86-5.29-.45-1.31,2.67-2.96-.25,6.4-12.72ZM302.52,419.91l-.41-1.46c-.31-1.12-.67-2.47-.91-3.48h-.04c-.45,1-1.01,2.22-1.54,3.29l-.67,1.35,3.57.3Z"/><path d="M316.55,412.91l2.89.25-.51,6,.03.02,5.22-5.62,3.4.29-5.63,5.86,4.81,7.33-3.55-.3-4.32-6.85h-.04s-.55,6.43-.55,6.43l-2.89-.25,1.12-13.17Z"/><path d="M333.9,421.03c.33-3.84,3.54-6.53,7.45-6.2,3.91.33,6.62,3.53,6.3,7.37-.33,3.84-3.54,6.53-7.45,6.2-3.91-.33-6.62-3.53-6.3-7.37ZM344.75,421.95c.2-2.35-1.35-4.35-3.63-4.54-2.27-.19-4.14,1.51-4.34,3.86-.2,2.35,1.35,4.35,3.62,4.54,2.27.19,4.14-1.51,4.34-3.86Z"/><path d="M368.51,417.35l2.87.24-.41,4.78c-.11,1.25-.23,2.51-.36,3.76h.04c.91-1.05,1.81-2.06,2.76-3.11l4.37-4.88,2.8.24-1.12,13.17-2.87-.25.42-4.95c.11-1.29.24-2.58.37-3.87h-.04c-.94,1.09-1.87,2.15-2.84,3.22l-4.51,5.04-2.6-.22,1.12-13.17Z"/><path d="M395.4,433.11c-4.22-.36-6.9-3.52-6.57-7.36.33-3.86,3.53-6.57,7.75-6.21,1.4.12,2.7.56,3.69,1.23l-.24,2.86c-.94-.79-2.23-1.38-3.55-1.49-2.58-.22-4.52,1.43-4.72,3.81-.2,2.38,1.38,4.37,4.11,4.6,1.35.11,2.68-.25,3.76-.89l-.24,2.84c-1.15.54-2.63.73-3.97.61Z"/><path d="M409.39,420.84l2.89.25-.51,6,.03.02,5.22-5.62,3.4.29-5.63,5.86,4.82,7.33-3.55-.3-4.32-6.85h-.04s-.55,6.43-.55,6.43l-2.89-.25,1.12-13.17Z"/><path d="M433.58,422.91l2.95.25,4.15,13.62-3.09-.26-.84-2.86-5.29-.45-1.31,2.67-2.96-.25,6.4-12.72ZM436.08,431.31l-.41-1.46c-.31-1.12-.67-2.47-.91-3.48h-.04c-.45,1-1.01,2.22-1.55,3.29l-.66,1.35,3.56.3Z"/><path d="M450.11,424.32l2.78.24,3.43,5.9,4.38-5.23,2.74.23-1.12,13.17-2.89-.25.45-5.27c.09-1.09.22-2.33.32-3.29h-.04c-.7.87-1.44,1.78-2.17,2.65l-2.14,2.55-1.68-2.87c-.58-.98-1.15-2-1.69-2.98h-.04c-.06.96-.15,2.2-.24,3.29l-.45,5.27-2.78-.24,1.12-13.17Z"/><path d="M472.92,426.27l8.13.69-.22,2.53-5.24-.45-.23,2.66,4.51.39-.21,2.44-4.51-.39-.26,3.02,5.44.46-.22,2.53-8.33-.71,1.12-13.17Z"/></svg>