<svg version="1.2" xmlns="http://www.w3.org/2000/svg" viewBox="0 0 600 600" width="600" height="600"><style>.a{fill:#fff}</style><path class="a" d="m0 0h600v600h-600z"/><path  d="m244.7 251.7c-10.1 2.1-17.1 3.8-25.7 5.9-1.5 0.4-6.8 1.4-5.3 4.2 1.3 2.7-2.7 2-4.3 4.9-2.4 4.3-2.4 9.8-1.5 14.6 0.2 1.1 2.4 7.2 2.1 7.6-0.8 0.1-0.6-0.2-0.8-0.6-2.8-3.9-4-11.4-3.5-16.1 0.3-2.7 1.2-4.9 2.4-7-0.6-0.1-1-0.3-1.3 0-3.5 3.4-4.2 10.3-3.5 14.8 0.4 2.5 1.6 4.8 2.1 7.3-4.9-6.5-6.3-18.2 1.5-23.9-1.2-1.5-4.2-1.6-5.9-1.3-7.5 1.6-13.1 3.1-20.7 4.9-7.6 1.8-12.2 2.8-19.4 4.7-6.1 1.5-4.9 3.2-8 10.9-0.2 0.4 0 0.7-0.5 1-1.4-1.7-3.7-2.1-5.4-3.1-2.7-1.6-2.8-4-6.5-3-4.5 1.1-9.3 4-13.2 6.2-3.9 2.2-9.4 1-13.6 0l-1.9-1.6c4-0.4 8.1 1.5 12 0.2 4.7-1.4 7.9-6.3 11.7-8.2 2.2-1.2 9.9-2 11.3-3.2 0.2-0.3 0.4-0.3 0.3-0.8-3.8-1.3-5.9-5.3-3.4-8.6 0.5-0.7 1.5-1.3 2.2-1.7 2-1 3.9-1.5 4.9-1.5 0.5-0.7-4.1-6.1-4.8-6.9-1.5-1.9-3-3.7-4.8-5.2-0.4-0.3-2.7-2-2.8-2.1-1.2-0.5-6.1-0.2-7.6 0.4-11.5 4.6-16.3 0.3-19.8 8.2-2.5 1.3-10.2 6-12.3 2.7-2.9 1.3-0.9 5.1 0.6 7.6 0 0-1-4.1-0.7-5 0.4-1 0.9-0.4 0.9-0.4-0.1 1 0.2 2.4 0.9 3.2 1.4 1.5 6.2 0.6 1.6 4.3 3.2 5.1 1.6 12.5 6.3 16.9-8.8 19.5 1.5 40.4 21.2 47.3 13.2 4.7 26.8 0.5 37-8.5 1.1-1 7-7 6.5-8-1.8-1.9-4.9-2.6-6-5.2 2.2 1.9 7.6 6.9 8.6 1.4-2.6-1.5-4.8-3.3-6.8-5.5-0.7-0.9-4.2-6.2-4.7-6-1.2 1.3-1.8 2.5-1.1 4.3-1.6-1-2.1 0.7-3.2 1.5-4.8 3.7-9.4 6.6-15.7 7.4-1.1 0.1-2.6-0.3-3.6 0-0.6 0.2-1.6 1.7-2.5 2.1-0.9 0.5-1.9 0.5-2.8 0.9-1.3 0.3 1.5-2.7 1.1-3l-5.8 2.4c-0.2-0.2 2.8-3.7 2.4-4.6-0.5-0.5-4.8 3.4-6.1 2.8-0.6-0.6 2.4-3.8 2.7-4.5-0.4-0.6-0.4-0.3-0.8-0.2-1.5 0.4-3.3 2.1-4.8 2.8-1.9-1.2 3-4.8 2.3-5.5-1.9-0.2-3 1.8-4.8 2.2-1.2-0.3 0.9-4.4 1.4-5.1-0.9-1.5-3.9 1.8-4.3 1.4-0.2-1.4 2.1-3.3 3.2-3.7 4.5-1.7 12.2 3.4 15.4 6.4l-2.3-5.8c3.7 0.8 7 5.7 10.8 5.5 2.6-0.2 10.9-3.4 12.6-5.2 1.1-1.1 0.6-2 1-3.3 0.7-2 2.8-3.9 4.9-4.3 0.3-4-0.3-7.2 1.4-10.9 1-2.1 5.3-6.4 7.5-6.9 3.9-0.8 3.8 3.8 3.2 6.4 2-1.8 5-5.4 8-4.5 2.1 0.7 2.1 3.1 2.9 3.7 0.7 0.7 1.9-0.8 2.8 0.3 0.7 1 1.4 1.8 1.1 3.7-0.1 0.3 1.7 0.7 2.3 1.9 2.1 3.5-1.3 11.9-3.9 14.8 7.7-0.7 13.4-1.3 22.1-2.1 9.3-0.9 19.3-1.5 27.8-2.7 1.7-0.3 5.9-0.3 6.7-3.4 0.4-1.5-0.3-7.3-0.8-9.7-2.3-13.3-2-15.6 0-19.2 1.3-2.6 2.4-1.9 3-3.7 0.4-1.2-2-7.9-3.5-8zm-129 20c1.8-2.7 16.5-5.7 18.1-4.3-0.3 1.1-2.3 0.8-3.2 0.9-5 0.7-10.1 1.6-14.9 3.4zm12.2 0.3c-3.1 0.3-6.9 1.8-6.9 1.8 3.7-2.9 9.1-3.5 13.8-3.7 0 0-2 1.3-6.9 1.9zm7.5-7.7c0 0.4-0.6 0.4-0.9 0.5-3.2 0.8-6.5 0.2-9.7 0.4-3.3 0.2-6.5 1.2-9.7 1.5 0.7-0.7 2.1-1.1 3-1.4 5.4-1.6 11.8-2.1 17.3-1zm-17.9-12.5c5.8-1.1 7.8 8.9 0.8 8.2-4.6-0.5-5.3-7.4-0.8-8.2zm95.4 32.8c-0.8-2.5-2-6.3-0.9-8.6 0.9 4.4 1.7 9 3.8 13.2-1.8-0.5-2.4-3.1-2.9-4.6zm25.3 5c-1.9 2-9.9 3.3-12.4 2.6-1.7-0.5-3.4-6.1-3.8-7.8-1.2-4.4-1.9-9.9-1.6-14.4 0.1-1.3 1.3-7.7 2.4-8.1 0.6-0.2 4-0.6 4.8-0.7 2.5-0.2 6.6-0.4 8.6 1.1 5.8 4.1 6.8 22.3 2 27.3z"/><path  d="m183.7 378.2c-1.9 1.2-3.8-0.4-3-3 1.3-4 10.6-11.5 13.8-15.1 6.7-7.6 15.1-20.9 8.8-30.4-1.2-1.9-2.3-3.3-3.9-5.5-2-2.6-4.9-6.5-6.9-9.2-1.7-2.5-5-1.4-5.9-1.5-1.1 0-3.4 0.8-4.9 0.2l5.1-1.5c6.7-1.9 8.4 2.3 12.4 1.9 1.4-0.5 1.6-4.7 1.7-5.7 0.2-2.4 0.7-5.1-0.5-5 0 0-10.3 1-12.4 1.4-0.9 0.2-8.6 2.8-9 3.3-0.5 0.5-0.3 1.4-0.6 2.2-1.1 2.8-4.1 6.5-6 8.8-6.5 7.7-12.6 12.3-21.8 15.3-5.1 1.6-14.2 3.1-22.7 1.5-0.2 0.2 1.5 2.4 0.7 3.9-0.3 0.4-1.2 1.8-2.1 2.4-9.5 6.8-14.6 13.6-18.4 25.9-0.9 2.7-0.1 5.5 1.7 6.9 0.5 0.4 5.6 5.4 4.7 6.9-0.2 0.3-1.3-0.6-7-3.6-7.6-4.1-19.5 5.4-14.9 13.9 0.7 1.4 9.9 2.4 17.8 1.8 6.2-0.4 13.4-1 22-4.5 1.6-0.6 5.1-0.4 7.5-1.8 0.7-0.5 0.2-1.1 0-1.8-0.7-1.5-2-4.2-2.7-5.7-0.3-0.6-1.4-0.2-0.6-1.9 0.5-1.2 4.9-3.6 6.3-4.7 2.8-2.2 6.5-6.2 8.9-8.9 1.4-1.5 2.6-3.2 3.7-4.9 1.1 0-1.9 7.1-2.3 7.7 1.3 0.9 12.6-4.1 14.7-4.8 1.4-0.4 2.9-0.8 4.3-1.1l-6.4 3.9c1.5 3.7-1.3 8.4-3 11.7-1.1 2.1-4.7 5.9-1.5 7.8 3.4 2.1 21.7 4.3 26.5 4.3 8.2 0.2 12-0.2 20.2-2.9 1.9-0.6 2.8-6.6-1-10.1-7.6-7.1-17.8-1.6-23.2 1.9z"/><path  d="m153.3 255.4c0.7 1.6 3.2 3 4.1 4.5 0.9 1.4 0.6 2.9 1.6 4 0.6 0.3 3 0.3 3.8 0.1 9.9-3.1 18.9-4.6 22.3-5.1 1.9-0.3 18-4 18-4 0.2-0.3-0.8-4.7-0.8-4.7-4.9 0.4-10 1.5-14.9 1.8-1.2 0.1-5.5 0.6-6.2-0.3-1.2-1.8-3.8-15.9-4.4-19.5l0.8-1.3 4.5 19.8c0.7 0.8 6.1 0.3 7.4 0.1 12.4-1.6 19.1-4.1 29.8-7 4.9-1.4 6.8-0.9 6.3-6.3-0.5-4.5-1.6-10.2-2.5-14.7-0.8-3.6-0.5-7.2-5-7.3-6.4-0.1-17.6-0.3-20.7 1-15.3 6.6-31.5 13.5-45.7 19.2-1.8 0.8-2 1.1-1.9 3.3 0.2 2.1 2.8 14.7 3.5 16.4zm57.8-36.8c0.8 0 2.6 0 3.3 0 0.7 0 4.7 0.4 4.9 0.6 0.4 0.2 0.6 0.8 0.7 1.2 0.9 2.6 1.8 9.5 2.2 12.5 0.4 3.9 1 5.8-3.5 6.6-4.2 0.6-9 0.5-13.2 0.5l-1.4-4.8c0.6 0.4 0.7 0.9 1.5 1.4 2.5 1.7 5.1 0.6 6.8-1.6 4-5.2 1.3-14.4-6.1-13.7-0.2 0.9 0.2 0.6 0.6 0.8 1 0.7 2.2 1.2 3.1 2.1 2.3 2.4 3.2 7.5 0.3 9.7 0.3-1.7 0.8-4.1-0.5-5.5-2.2 3.2-1.9 0.8-3.1-0.6-0.9-1.1-2.8-1.7-4.1-0.9l-1.2-7.4c3.9-0.7 6.1-0.9 9.7-0.9zm-13.2 0c1.5 2.1 2.6 15.8 5.2 23.3h15.2c-0.2 0.6-0.7 0.5-1.1 0.6-3.5 0.6-9.7 1-13.2 1-3.2-0.1-3.1-3.9-3.7-6.5-1-4.9-2.5-12.4-2.8-17.2 0-0.5-0.3-0.8 0.4-1.2zm-4.8 5.3c0.1-0.7 0.4-0.3 0.8-0.7l3.2 16.2c-0.6 0.1-0.9-0.3-1.2-0.8-0.7-1.6-1.7-7.5-2.1-9.5-0.2-1.3-0.9-4.1-0.7-5.2zm-2.6 0.5c0.8 0.9 1.3 4.9 1.4 5.9 0.6 3.2 1.5 6.4 2.1 9.6l-0.9 0.8c-0.4-0.4-2.5-9.7-2.7-11-0.2-1.5-0.8-4 0.1-5.3zm-2.8 1.2l2.6 16c-0.3 0-0.6 0.1-0.9-0.2-0.7-0.9-2.5-10.9-2.7-12.6-0.1-1.4-0.2-2.3 1-3.2zm-4.3 2.7c0-0.6 0.7-1.3 1.1-0.8 0.1 0.1 0.3 2.8 0.4 3.4 0.7 3.4 2.1 8 2.3 11.2 0.1 1.7-0.6 1.6-1.2 0.3-0.8-2-2.9-12.1-2.6-14.1zm-1.9 0.7l2.7 14.7c-0.7 0.1-1.2-0.6-1.4-1.1-0.8-2.1-2-7.9-2.2-10.1-0.1-1-0.5-3.5 0.9-3.5zm-26.2 16.2l9.2-3.3c0.8 0 4.9 0.9 4.9 0.9l-0.6 7.4c0 0-9.1 2.6-11.5 3.3-0.7 0.3-1.3-0.7-1-1.2 0.1-0.2 4.2-1.5 4.9-1.7 0.8-0.3 6.1-1.6 6.3-1.9q0 0 0-0.1c0.4-0.6-0.2-1.3-0.9-1.2-2.7 0.5-9.8 3.1-10.4 3.1-0.6 0-0.6-0.7-0.5-1.2 0 0 10-3.4 9.8-3.3 0 0 0.7-0.4 0.6-1.2-0.3-0.5-0.7-0.5-1.3-0.4l-9.3 3.2c-0.6-0.5-0.9-1.8-0.2-2.3z"/><path  d="m148.9 265c-1.3-0.5-1.8-2.7-2.3-2.9-0.8-0.2-1.7-0.2-2.2 0.9-2.6 7.7 12 10.3 11.6 2.3-0.2-2.5-4.2-7.1-6.3-4.2-1.5 2 2 3.1 2 3.7-1 0.7-2.3 0.4-2.8 0.2z"/><path  d="m173.4 265.6c0.3-0.2 6.4-1.4 7.2-1.5 0.9-0.1 1.7 0.2 2.3 0.1 1.2-0.1 2.5-0.7 3.8-0.6l-0.3-1.4c-4.8-0.3-9.5 1.2-14.2 2.1-0.4 2.6 0.7 3 2.7 2.6 2.1-0.4 5.1-0.9 7.2-1.5 0.4-0.1 0.1-0.2 0-0.8l-4.4 0.8c-3.9 0.9-4.5 0.4-4.3 0.2z"/><path  d="m185.6 261c0.3-0.2 0.7-0.8 0.7-1.1-0.3-0.3-4.7 0.5-5.5 0.6-1.2 0.2-9.3 1.7-9.6 2.2l0.2 0.7 0.7 0.6q2.6-0.9 5.4-1.5c1.4-0.3 7.5-1.1 8.1-1.5z"/><path  d="m229.8 267.4c-0.3 1.3 1.5 2.3 0.9 3.7-1.5-1.5-3.3-4.4-5.3-5.1-0.5-0.2-2.1-0.4-2.2-0.5-0.2-0.2 0.2-1-0.3-0.9-1.7 5.8-2 20 4.1 23.3 1.6 0.8 3.3-1 4.1-2.3 3.4-5.3 3.1-13.6-1.3-18.2z"/><path  d="m235.3 263.4l-4.8 0.3c-0.4 0.5 1.8 2.9 2.2 3.5 3.8 6.4 3.5 13.6-0.5 19.8-0.3 0.6-3.2 2.9-1.2 3.1 0.6 0.1 4.2-0.6 4.9-0.9 3.1-1.4 4.5-9.1 4.5-12.1 0-2.7-2-13.1-5.1-13.7z"/><path  d="m217.2 225.9c0.6 1.8 1.1 8.4 1.5 9 0.5 0.7 1.8 0.2 2-0.8 0.4-2.2-0.9-12.5-2.5-13.8-0.8-0.7-1.8-0.4-2.7-0.2-0.6 0.1-0.9 0.7-0.6 1.2 0.8 1.5 1.8 2.8 2.3 4.6z"/><path  d="m173.9 277.2c-0.9-1.4-4.4 2.5-5 3.3-5.1 6.7-3.2 17.1 2.7 22.7 1.3 1.2 3.7 3.1 5.6 2.8 3-0.6 7.8-4.5 9.7-6.9 3.1-4 4.4-6.8 4.8-8.7 0.6-3 0-4-0.8-4.6-1-0.8-2.8 5.7-5.9 6.2 1.3-1.4 3.2-3.9 3.7-5.1 0.7-2 1.5-5.2-0.1-5.3-1.1-0.1-1.8 2.4-3.3 4.3-1.4 1.9-3.3 2.8-3.3 2.8 0.9-2.7 3.8-6.6 2.8-8.1-0.4-0.4-1.8-2.9-5.5 1.1-0.7 0.7-5.9 5.4-6.8 4.4-0.7-2.2 2.6-7.1 1.4-8.9z"/><path  d="m101.2 348.2c1 0.7 3.6 2.3 5.7 3.5l-1.8-11.7 15.8-5.6c-16.7-4.8-31.1-20-33.3-36.2-1.3-10.3 0.3-20.4 5.5-28 1.5-2.2 3.1-5 5.1-6.5 0 0-2.2-2.7-2.3-3.9-1.4 0.7-5.3 2.4-5.4 2.4l-0.7 1.4c-3.2 2.7-6.3 6.8-7.6 8.9-17 26.9-0.9 62.3 19 75.7z"/><path  d="m118.5 257.1c2 0.1 1.4-2.6-0.2-2.4-1.2 0.3-1.1 2.2 0.2 2.3z"/><path  d="m86.7 260.9c12.9-1 8-5.3 10.7-7.1 1.7-1.1 2 1.6 5.5 1.2 4.5-0.9 6.4-2.5 7.5-4.9 0.6-1.2 0.7-3 2-4.2 2.1-2 6-0.9 7.5-0.7 2.9-0.1 3.8-0.2 6.3-0.9 4.7-1.2 4.5-2.7 9.9-3.6 0 0-0.5-3.6-4.5-9.7-4.2-6.4-7.1-10.1-14.1-8-8.4 2.6-16 8.3-23.3 16.6-3.5 3.9-6.4 7.2-10 14.7-1.2 2.5-2.8 7 2.5 6.5zm38.3-31.3c3.7-1.5 6.5 6 1.7 6.3-3.2 0.2-4.6-5.1-1.7-6.3z"/><path  d="m298.8 278.8c0.1-11.7 3.6-23.8-1.4-33.1-1.7-1.7-5.1-3.3-8.6-2.9-10.3 1.1-18.8 0.2-29.2 5-0.2 14.8-0.5 31.5-0.8 46.3 12.1 3.3 25.9 2.8 38.2-5.4 1.7-2 1.7-5.9 1.8-9.9zm-15.5-1c-0.1 3.8-5.3 7.9-8.7 2.4-5.1-5.3 1.9-15.2 0.3-22.7 3.5-0.3 8.6-2.7 10.3 2.9 1.6 5.7-0.2 11.6-1.9 17.4z"/><path  d="m309 292.1c10.4-2.4 20.8 3.3 29.5-5.2 5.2-8.6-5.2-12.1-10.4-9.7 3.5-8.4 0.1-18.4 1.9-26.7 1.7-0.1 6.8 1.4 8.6-2.8 1.8-23-20.6-8.1-30.9-7-3.4 0.4-1.7 6.1-1.8 10.1 1.7 3.8 6.9 1.3 10.3 1-3.5 8.3-0.1 16-1.9 24.1-1.7 0.2-5.1 0.4-6.9 0.5-3.5 4.1-5.2 10.1 1.6 15.7z"/><path  d="m361 288c6.9-0.2 17.3 3.7 20.7-5.2 3.5-6.7 3.4-17.7-0.1-24-5.2-10.4-17.2 1.3-13.7 13.9-12.1-1.4-8.7-16.4-7-27.2 6.9-0.7 24.1 2.1 18.9-14.9-12-0.8-30.9-4.9-32.6 12-3.5 12.9-5.2 27.5-0.1 39.7 3.5 4.1 8.7 3.8 13.9 5.7z"/><path  d="m406 284c8.6-0.4 15.5-0.7 24.1-5.7-1.8-9.2-0.2-18.6-3.7-25.2-5.3-11.1-17.2 1.3-13.6 14.7-12.1-1.5-7.1-17.6-5.5-29 6.9-0.7 22.4 2.4 17.1-15.5-10.4-3.4-22.4-1.9-32.6 6-3.3 20.2-6.6 51.2 14.2 54.7z"/><path  d="m440.5 280.1c10.4-0.5 19-3.3 29.4-3.8 3.4-2.6 3.3-9.9 1.5-12.2-5.3-6.9-13.7 3.3-20.7-3.5q-0.1-3.5-0.2-7.1c5.1-7.5 10.5 8.8 15.5-3.6 4.9-17.4-8.7-8.9-14-13.1v-4.8c5.1-0.5 12 1.2 17.2-1.7 3.3-5.2 4.9-12.7-2.1-19.2-10.2 6-18.8 4.7-29.1 5.9-3.2 19.1-1.2 39.9-1 58.6 0 2.3 1.8 2.2 3.5 4.5z"/><path  d="m514.2 235.9c1.7-0.1 3.4-2.8 3.4-2.8-0.2-7.7 3-20.8-2.3-25.3-10.4-6.3-22.3 2.7-32.6 1.5-3.1 20-1 41.8-0.6 61.4 1.8 7.3 10.5 6.9 13.8-0.7 1.6-5.1-2-12.4-0.3-17.4 1.6-2.7 5.1-0.4 8.6-0.7 3.5 2.3 1.9 9.9 5.5 17.3 0.1 5 8.8 4.6 12.2 1.9 4.9-10.6 4.5-31.1-7.7-35.2zm-10.5-6.6c0.1 2.5-1.6 7.7-6.8 5.7-1.7-2.3-1.9-9.8-0.2-12.5 3.3-5.3 6.9 1.8 7 6.8z"/><path  d="m326.5 309c-3.7 0.1-9.3 0.3-11.2 4.6-1.9 12.9 1.9 27.9-7.5 38.5-7.5-10.8 0-25.5-5.6-38.1 0-4.3-11.1-3.9-11.1-1.9-9.5 18.8-2 41.5 9.2 56.6 5.7-1.9 13.2 0.6 18.8-3.4 13.2-10.4 13.1-32.3 11.1-52 0-2.2-1.8-2.2-3.7-4.3z"/><path  d="m369.4 305.5c-9.3 4.8-20.6 0.6-29.9 3.1-3.7 2.3-1.8 6.7-1.8 11.1 1.9 4.4 5.7 6.6 11.3 4.3-3.7 9 0.1 17.9-1.7 26.8-1.9 0-5.6-0.1-7.5-0.2-3.8 4.4-5.6 10.9 2 17.8 9.3-6.3 35.8 10.9 31.8-12.4-1.9-4.6-7.5-2.5-11.3-2.6 3.7-9-0.2-20.4 1.6-29.6 1.9 0 7.5 2.3 9.4-2.4-0.1-4.6-2-11.4-3.9-16z"/><path  d="m406.6 304.3c-9.3 2.6-16.8-4.2-26 3.1 2.1 20.9-3.3 41.8 4.4 60.6 13.1-6.6 26.4 3.5 37.5-5.7 3.5-17 5-36.6-2.7-53.6-0.1-4.9-7.6-4.6-13.2-4.4zm0.7 43.1c0 2.4-1.8 4.7-1.8 4.7-16.9 2-5.9-19.1-8-30.9 3.8-0.1 7.5-2.5 9.4-0.2 5.7 7.2 2.1 19.2 0.4 26.4z"/><path  d="m466.2 297.2c-11.1 5.5-20.5 3.3-31.7 3.7-3.3 19.8-1 42-0.7 61.7 0.1 2.5 2 5 3.9 5.1 11.2-2 20.7 0.8 31.9-1.3 3.7-2.4 3.5-10.2 1.6-12.8-5.8-7.8-15 2.2-22.6-5.5q-0.1-3.8-0.2-7.5c5.5-7.6 11.5 10.2 16.8-2.4 5.2-18-9.6-10.2-15.3-15.2l-0.1-5c5.6-0.1 13.1 2.3 18.7-0.3 3.6-5.2 5.3-13-2.3-20.5z"/><path  d="m498.4 293.3c-7.5-2.3-14.8 3.2-16.5 8.5-8.9 18.3-1 36.4-2.5 54.5 11.6 13.4 38.1 19.8 43.1-4.3 1.5-13.5 1-29.8-1.3-43.3-2.2-13.5-13.5-15.8-22.8-15.4zm7 50.4c-1.8 2.6-7.3 10.5-9.3 2.5-4-7.9-4.3-18.4-2.6-29 1.6-7.9 10.9-8.1 13-0.2 0.2 8-1.3 18.7-1.1 26.7z"/><path  d="m272.3 385.3v8.9h-1.9v-7.2l-3.7-0.1v7.3h-2v-9c0 0 7.6 0.1 7.6 0.1z"/><path  d="m278.8 385.3h3.1c1.1 0 1.9 0.1 2.5 0.6 0.7 0.5 1.1 1.3 1.1 2.3 0 1-0.4 1.8-1.1 2.3-0.6 0.5-1.4 0.6-2.5 0.6h-1.2v3.1h-2zm3.2 4.2c0.5 0 0.9 0 1.2-0.2 0.3-0.2 0.4-0.6 0.4-1 0-0.5-0.1-0.8-0.4-1-0.3-0.2-0.7-0.3-1.2-0.3h-1.2v2.5h1.2z"/><path  d="m293.5 385.3h2l3.5 8.9h-2.1l-0.7-1.8h-3.6l-0.7 1.8h-2c0 0 3.6-8.9 3.6-8.9zm2.1 5.5l-0.3-0.9c-0.3-0.8-0.6-1.7-0.8-2.3h-0.1c-0.2 0.7-0.5 1.5-0.8 2.3l-0.4 0.9z"/><path  d="m304.7 385.3h3.2c0.9 0 1.6 0.1 2.2 0.6 0.6 0.4 1 1 1 1.8 0 0.8-0.5 1.5-1.2 1.9 1 0.3 1.5 1.1 1.5 2 0 0.9-0.4 1.6-1 2-0.6 0.5-1.4 0.7-2.4 0.7h-3.3c0 0 0-9 0-9zm4.3 7.1c0.2-0.2 0.4-0.5 0.4-0.9 0-0.7-0.5-1.1-1.3-1.1h-1.5v2.2h1.3c0.5 0 0.8-0.1 1.1-0.2zm-1.1-3.4c0.7 0 1.2-0.4 1.2-1 0-0.4-0.2-0.7-0.4-0.8-0.2-0.2-0.5-0.2-1-0.2h-1.1v2z"/><path  d="m317.4 385.3h1.9v3.3q0 1.2 0 2.5c0.6-0.7 1.1-1.5 1.7-2.2l2.7-3.6h1.9v9h-2v-3.4q0-1.3 0.1-2.6h-0.1q-0.8 1.2-1.7 2.3l-2.8 3.7h-1.7z"/><path  d="m332 385.3h1.9l2.7 3.8 2.6-3.7h1.9v8.9h-2v-3.6c0-0.7 0-1.6 0.1-2.2h-0.1q-0.6 0.9-1.3 1.9l-1.3 1.8-1.3-1.8q-0.7-1-1.3-1.9c0 0.6 0 1.5 0 2.2v3.6h-1.9z"/><path  d="m355.3 385.4h5.7v1.7h-3.8v7.2h-1.9v-8.9z"/><path  d="m366.1 389.9c0-2.6 2-4.6 4.7-4.6 2.6 0 4.6 2 4.6 4.6 0 2.6-2 4.6-4.6 4.6-2.7 0-4.7-2-4.7-4.6zm7.4 0c0-1.6-1.2-2.9-2.7-2.9-1.6 0-2.7 1.3-2.7 2.9 0 1.6 1.1 2.8 2.7 2.8 1.5 0 2.7-1.2 2.7-2.8z"/><path  d="m381.2 392.5h1.7l-1.1 3.7h-1.3c0 0 0.7-3.7 0.7-3.7z"/><path  d="m399.9 385.4h2l3.6 9h-2.1l-0.8-1.9h-3.6l-0.7 1.9h-2c0 0 3.6-9 3.6-9zm2.2 5.6l-0.4-1c-0.3-0.7-0.6-1.6-0.8-2.3-0.3 0.7-0.6 1.6-0.9 2.3l-0.4 1z"/><path  d="m411.1 385.4l2 0.1v4l3.2-4h2.3l-3.4 4.2 3.6 4.7h-2.4l-3.3-4.4v4.4h-2v-9z"/><path  d="m423.3 389.9c0-2.6 2-4.6 4.7-4.6 2.6 0 4.6 2 4.6 4.7 0 2.6-2 4.6-4.6 4.6-2.7 0-4.7-2-4.7-4.7zm7.4 0.1c0-1.6-1.2-2.9-2.7-2.9-1.6 0-2.7 1.2-2.7 2.8 0 1.6 1.1 2.9 2.7 2.9 1.5 0 2.7-1.3 2.7-2.8z"/><path  d="m446.4 385.5h2v3.2q0 1.3 0 2.6c0.5-0.8 1.1-1.5 1.7-2.3l2.6-3.5h1.9v9h-1.9v-3.4q0-1.3 0-2.6-0.9 1.1-1.7 2.3l-2.8 3.7h-1.8z"/><path  d="m465.5 394.6c-2.9 0-4.9-2-4.9-4.6 0-2.6 2-4.6 4.9-4.6 1 0 1.9 0.2 2.6 0.6v2c-0.7-0.5-1.6-0.9-2.5-0.9-1.8 0-3 1.3-3 2.9 0 1.6 1.2 2.9 3.1 2.9 0.9 0 1.7-0.4 2.4-0.9v2c-0.7 0.4-1.7 0.6-2.6 0.6z"/><path  d="m474.2 385.5h2v4.1l3.2-4.1h2.3l-3.4 4.3 3.6 4.7h-2.4l-3.3-4.4v4.4h-2v-9z"/><path  d="m490.7 385.6h2l3.5 8.9h-2.1l-0.7-1.9h-3.6l-0.7 1.9h-2c0 0 3.6-8.9 3.6-8.9zm2.1 5.5l-0.3-1c-0.3-0.7-0.6-1.6-0.8-2.3h-0.1c-0.2 0.7-0.5 1.6-0.8 2.3l-0.4 1h2.4z"/><path  d="m501.9 385.6h1.9l2.6 3.8 2.7-3.8h1.9l-0.1 8.9h-1.9v-3.5c0-0.8 0-1.6 0-2.3-0.4 0.6-0.9 1.3-1.3 1.9l-1.3 1.9-1.3-1.9q-0.7-0.9-1.3-1.9h-0.1c0.1 0.7 0.1 1.5 0.1 2.3v3.5h-1.9v-8.9z"/><path  d="m517.4 385.6h5.5v1.7h-3.5v1.8h3v1.7h-3.1v2h3.7v1.8h-5.6v-9z"/></svg>